G04 EAGLE Gerber RS-274X export*
G75*
%MOMM*%
%FSLAX34Y34*%
%LPD*%
%IN*%
%IPPOS*%
%AMOC8*
5,1,8,0,0,1.08239X$1,22.5*%
G01*
%ADD10C,0.254000*%


D10*
X0Y0D02*
X780000Y0D01*
X780000Y1040000D01*
X0Y1040000D01*
X0Y0D01*
X420000Y745396D02*
X419927Y744189D01*
X419781Y742989D01*
X419563Y741800D01*
X419274Y740627D01*
X418915Y739473D01*
X418486Y738343D01*
X417990Y737241D01*
X417428Y736170D01*
X416803Y735136D01*
X416116Y734141D01*
X415371Y733190D01*
X414569Y732285D01*
X413715Y731431D01*
X412810Y730629D01*
X411859Y729884D01*
X410864Y729197D01*
X409830Y728572D01*
X408759Y728010D01*
X407657Y727514D01*
X406527Y727085D01*
X405373Y726726D01*
X404200Y726437D01*
X403011Y726219D01*
X401811Y726073D01*
X400604Y726000D01*
X399396Y726000D01*
X398189Y726073D01*
X396989Y726219D01*
X395800Y726437D01*
X394627Y726726D01*
X393473Y727085D01*
X392343Y727514D01*
X391241Y728010D01*
X390170Y728572D01*
X389136Y729197D01*
X388141Y729884D01*
X387190Y730629D01*
X386285Y731431D01*
X385431Y732285D01*
X384629Y733190D01*
X383884Y734141D01*
X383197Y735136D01*
X382572Y736170D01*
X382010Y737241D01*
X381514Y738343D01*
X381085Y739473D01*
X380726Y740627D01*
X380437Y741800D01*
X380219Y742989D01*
X380073Y744189D01*
X380000Y745396D01*
X380000Y746604D01*
X380073Y747811D01*
X380219Y749011D01*
X380437Y750200D01*
X380726Y751373D01*
X381085Y752527D01*
X381514Y753657D01*
X382010Y754759D01*
X382572Y755830D01*
X383197Y756864D01*
X383884Y757859D01*
X384629Y758810D01*
X385431Y759715D01*
X386285Y760569D01*
X387190Y761371D01*
X388141Y762116D01*
X389136Y762803D01*
X390170Y763428D01*
X391241Y763990D01*
X392343Y764486D01*
X393473Y764915D01*
X394627Y765274D01*
X395800Y765563D01*
X396989Y765781D01*
X398189Y765927D01*
X399396Y766000D01*
X400604Y766000D01*
X401811Y765927D01*
X403011Y765781D01*
X404200Y765563D01*
X405373Y765274D01*
X406527Y764915D01*
X407657Y764486D01*
X408759Y763990D01*
X409830Y763428D01*
X410864Y762803D01*
X411859Y762116D01*
X412810Y761371D01*
X413715Y760569D01*
X414569Y759715D01*
X415371Y758810D01*
X416116Y757859D01*
X416803Y756864D01*
X417428Y755830D01*
X417990Y754759D01*
X418486Y753657D01*
X418915Y752527D01*
X419274Y751373D01*
X419563Y750200D01*
X419781Y749011D01*
X419927Y747811D01*
X420000Y746604D01*
X420000Y745396D01*
X80000Y989396D02*
X79927Y988189D01*
X79781Y986989D01*
X79563Y985800D01*
X79274Y984627D01*
X78915Y983473D01*
X78486Y982343D01*
X77990Y981241D01*
X77428Y980170D01*
X76803Y979136D01*
X76116Y978141D01*
X75371Y977190D01*
X74569Y976285D01*
X73715Y975431D01*
X72810Y974629D01*
X71859Y973884D01*
X70864Y973197D01*
X69830Y972572D01*
X68759Y972010D01*
X67657Y971514D01*
X66527Y971085D01*
X65373Y970726D01*
X64200Y970437D01*
X63011Y970219D01*
X61811Y970073D01*
X60604Y970000D01*
X59396Y970000D01*
X58189Y970073D01*
X56989Y970219D01*
X55800Y970437D01*
X54627Y970726D01*
X53473Y971085D01*
X52343Y971514D01*
X51241Y972010D01*
X50170Y972572D01*
X49136Y973197D01*
X48141Y973884D01*
X47190Y974629D01*
X46285Y975431D01*
X45431Y976285D01*
X44629Y977190D01*
X43884Y978141D01*
X43197Y979136D01*
X42572Y980170D01*
X42010Y981241D01*
X41514Y982343D01*
X41085Y983473D01*
X40726Y984627D01*
X40437Y985800D01*
X40219Y986989D01*
X40073Y988189D01*
X40000Y989396D01*
X40000Y990604D01*
X40073Y991811D01*
X40219Y993011D01*
X40437Y994200D01*
X40726Y995373D01*
X41085Y996527D01*
X41514Y997657D01*
X42010Y998759D01*
X42572Y999830D01*
X43197Y1000864D01*
X43884Y1001859D01*
X44629Y1002810D01*
X45431Y1003715D01*
X46285Y1004569D01*
X47190Y1005371D01*
X48141Y1006116D01*
X49136Y1006803D01*
X50170Y1007428D01*
X51241Y1007990D01*
X52343Y1008486D01*
X53473Y1008915D01*
X54627Y1009274D01*
X55800Y1009563D01*
X56989Y1009781D01*
X58189Y1009927D01*
X59396Y1010000D01*
X60604Y1010000D01*
X61811Y1009927D01*
X63011Y1009781D01*
X64200Y1009563D01*
X65373Y1009274D01*
X66527Y1008915D01*
X67657Y1008486D01*
X68759Y1007990D01*
X69830Y1007428D01*
X70864Y1006803D01*
X71859Y1006116D01*
X72810Y1005371D01*
X73715Y1004569D01*
X74569Y1003715D01*
X75371Y1002810D01*
X76116Y1001859D01*
X76803Y1000864D01*
X77428Y999830D01*
X77990Y998759D01*
X78486Y997657D01*
X78915Y996527D01*
X79274Y995373D01*
X79563Y994200D01*
X79781Y993011D01*
X79927Y991811D01*
X80000Y990604D01*
X80000Y989396D01*
X80000Y39396D02*
X79927Y38189D01*
X79781Y36989D01*
X79563Y35800D01*
X79274Y34627D01*
X78915Y33473D01*
X78486Y32343D01*
X77990Y31241D01*
X77428Y30170D01*
X76803Y29136D01*
X76116Y28141D01*
X75371Y27190D01*
X74569Y26285D01*
X73715Y25431D01*
X72810Y24629D01*
X71859Y23884D01*
X70864Y23197D01*
X69830Y22572D01*
X68759Y22010D01*
X67657Y21514D01*
X66527Y21085D01*
X65373Y20726D01*
X64200Y20437D01*
X63011Y20219D01*
X61811Y20073D01*
X60604Y20000D01*
X59396Y20000D01*
X58189Y20073D01*
X56989Y20219D01*
X55800Y20437D01*
X54627Y20726D01*
X53473Y21085D01*
X52343Y21514D01*
X51241Y22010D01*
X50170Y22572D01*
X49136Y23197D01*
X48141Y23884D01*
X47190Y24629D01*
X46285Y25431D01*
X45431Y26285D01*
X44629Y27190D01*
X43884Y28141D01*
X43197Y29136D01*
X42572Y30170D01*
X42010Y31241D01*
X41514Y32343D01*
X41085Y33473D01*
X40726Y34627D01*
X40437Y35800D01*
X40219Y36989D01*
X40073Y38189D01*
X40000Y39396D01*
X40000Y40604D01*
X40073Y41811D01*
X40219Y43011D01*
X40437Y44200D01*
X40726Y45373D01*
X41085Y46527D01*
X41514Y47657D01*
X42010Y48759D01*
X42572Y49830D01*
X43197Y50864D01*
X43884Y51859D01*
X44629Y52810D01*
X45431Y53715D01*
X46285Y54569D01*
X47190Y55371D01*
X48141Y56116D01*
X49136Y56803D01*
X50170Y57428D01*
X51241Y57990D01*
X52343Y58486D01*
X53473Y58915D01*
X54627Y59274D01*
X55800Y59563D01*
X56989Y59781D01*
X58189Y59927D01*
X59396Y60000D01*
X60604Y60000D01*
X61811Y59927D01*
X63011Y59781D01*
X64200Y59563D01*
X65373Y59274D01*
X66527Y58915D01*
X67657Y58486D01*
X68759Y57990D01*
X69830Y57428D01*
X70864Y56803D01*
X71859Y56116D01*
X72810Y55371D01*
X73715Y54569D01*
X74569Y53715D01*
X75371Y52810D01*
X76116Y51859D01*
X76803Y50864D01*
X77428Y49830D01*
X77990Y48759D01*
X78486Y47657D01*
X78915Y46527D01*
X79274Y45373D01*
X79563Y44200D01*
X79781Y43011D01*
X79927Y41811D01*
X80000Y40604D01*
X80000Y39396D01*
M02*
