G04 EAGLE Gerber RS-274X export*
G75*
%MOMM*%
%FSLAX34Y34*%
%LPD*%
%INSilkscreen Bottom*%
%IPPOS*%
%AMOC8*
5,1,8,0,0,1.08239X$1,22.5*%
G01*
%ADD10C,0.050800*%


D10*
X382697Y379234D02*
X382697Y383726D01*
X381449Y383726D01*
X381380Y383724D01*
X381312Y383718D01*
X381244Y383709D01*
X381176Y383696D01*
X381109Y383679D01*
X381044Y383658D01*
X380979Y383634D01*
X380916Y383607D01*
X380855Y383576D01*
X380795Y383541D01*
X380738Y383504D01*
X380682Y383463D01*
X380629Y383419D01*
X380579Y383373D01*
X380531Y383323D01*
X380486Y383271D01*
X380443Y383217D01*
X380404Y383161D01*
X380368Y383102D01*
X380335Y383042D01*
X380306Y382979D01*
X380280Y382916D01*
X380258Y382851D01*
X380239Y382784D01*
X380224Y382717D01*
X380213Y382649D01*
X380205Y382581D01*
X380201Y382512D01*
X380201Y382444D01*
X380205Y382375D01*
X380213Y382307D01*
X380224Y382239D01*
X380239Y382172D01*
X380258Y382105D01*
X380280Y382040D01*
X380306Y381977D01*
X380335Y381914D01*
X380368Y381854D01*
X380404Y381795D01*
X380443Y381739D01*
X380486Y381685D01*
X380531Y381633D01*
X380579Y381583D01*
X380629Y381537D01*
X380682Y381493D01*
X380738Y381452D01*
X380795Y381415D01*
X380855Y381380D01*
X380916Y381349D01*
X380979Y381322D01*
X381044Y381298D01*
X381109Y381277D01*
X381176Y381260D01*
X381244Y381247D01*
X381312Y381238D01*
X381380Y381232D01*
X381449Y381230D01*
X382697Y381230D01*
X381199Y381230D02*
X380201Y379234D01*
X378230Y379234D02*
X376982Y379234D01*
X376913Y379236D01*
X376845Y379242D01*
X376777Y379251D01*
X376709Y379264D01*
X376642Y379281D01*
X376577Y379302D01*
X376512Y379326D01*
X376449Y379353D01*
X376388Y379384D01*
X376328Y379419D01*
X376271Y379456D01*
X376215Y379497D01*
X376162Y379541D01*
X376112Y379587D01*
X376064Y379637D01*
X376019Y379689D01*
X375976Y379743D01*
X375937Y379799D01*
X375901Y379858D01*
X375868Y379918D01*
X375839Y379981D01*
X375813Y380044D01*
X375791Y380109D01*
X375772Y380176D01*
X375757Y380243D01*
X375746Y380311D01*
X375738Y380379D01*
X375734Y380448D01*
X375734Y380516D01*
X375738Y380585D01*
X375746Y380653D01*
X375757Y380721D01*
X375772Y380788D01*
X375791Y380855D01*
X375813Y380920D01*
X375839Y380983D01*
X375868Y381046D01*
X375901Y381106D01*
X375937Y381165D01*
X375976Y381221D01*
X376019Y381275D01*
X376064Y381327D01*
X376112Y381377D01*
X376162Y381423D01*
X376215Y381467D01*
X376271Y381508D01*
X376328Y381545D01*
X376388Y381580D01*
X376449Y381611D01*
X376512Y381638D01*
X376577Y381662D01*
X376642Y381683D01*
X376709Y381700D01*
X376777Y381713D01*
X376845Y381722D01*
X376913Y381728D01*
X376982Y381730D01*
X376732Y383726D02*
X378230Y383726D01*
X376732Y383726D02*
X376671Y383724D01*
X376609Y383718D01*
X376549Y383709D01*
X376489Y383696D01*
X376429Y383679D01*
X376371Y383659D01*
X376315Y383635D01*
X376260Y383607D01*
X376207Y383577D01*
X376155Y383543D01*
X376106Y383506D01*
X376060Y383466D01*
X376016Y383423D01*
X375974Y383377D01*
X375936Y383329D01*
X375900Y383279D01*
X375868Y383227D01*
X375839Y383173D01*
X375813Y383117D01*
X375791Y383060D01*
X375772Y383001D01*
X375757Y382942D01*
X375746Y382881D01*
X375738Y382820D01*
X375734Y382759D01*
X375734Y382697D01*
X375738Y382636D01*
X375746Y382575D01*
X375757Y382514D01*
X375772Y382455D01*
X375791Y382396D01*
X375813Y382339D01*
X375839Y382283D01*
X375868Y382229D01*
X375900Y382177D01*
X375936Y382127D01*
X375974Y382079D01*
X376016Y382033D01*
X376060Y381990D01*
X376106Y381950D01*
X376155Y381913D01*
X376207Y381879D01*
X376260Y381849D01*
X376315Y381821D01*
X376371Y381797D01*
X376429Y381777D01*
X376489Y381760D01*
X376549Y381747D01*
X376609Y381738D01*
X376671Y381732D01*
X376732Y381730D01*
X377730Y381730D01*
X373730Y383227D02*
X373730Y383726D01*
X371234Y383726D01*
X372482Y379234D01*
X382697Y412254D02*
X382697Y416746D01*
X381449Y416746D01*
X381380Y416744D01*
X381312Y416738D01*
X381244Y416729D01*
X381176Y416716D01*
X381109Y416699D01*
X381044Y416678D01*
X380979Y416654D01*
X380916Y416627D01*
X380855Y416596D01*
X380795Y416561D01*
X380738Y416524D01*
X380682Y416483D01*
X380629Y416439D01*
X380579Y416393D01*
X380531Y416343D01*
X380486Y416291D01*
X380443Y416237D01*
X380404Y416181D01*
X380368Y416122D01*
X380335Y416062D01*
X380306Y415999D01*
X380280Y415936D01*
X380258Y415871D01*
X380239Y415804D01*
X380224Y415737D01*
X380213Y415669D01*
X380205Y415601D01*
X380201Y415532D01*
X380201Y415464D01*
X380205Y415395D01*
X380213Y415327D01*
X380224Y415259D01*
X380239Y415192D01*
X380258Y415125D01*
X380280Y415060D01*
X380306Y414997D01*
X380335Y414934D01*
X380368Y414874D01*
X380404Y414815D01*
X380443Y414759D01*
X380486Y414705D01*
X380531Y414653D01*
X380579Y414603D01*
X380629Y414557D01*
X380682Y414513D01*
X380738Y414472D01*
X380795Y414435D01*
X380855Y414400D01*
X380916Y414369D01*
X380979Y414342D01*
X381044Y414318D01*
X381109Y414297D01*
X381176Y414280D01*
X381244Y414267D01*
X381312Y414258D01*
X381380Y414252D01*
X381449Y414250D01*
X382697Y414250D01*
X381199Y414250D02*
X380201Y412254D01*
X378230Y412254D02*
X376982Y412254D01*
X376913Y412256D01*
X376845Y412262D01*
X376777Y412271D01*
X376709Y412284D01*
X376642Y412301D01*
X376577Y412322D01*
X376512Y412346D01*
X376449Y412373D01*
X376388Y412404D01*
X376328Y412439D01*
X376271Y412476D01*
X376215Y412517D01*
X376162Y412561D01*
X376112Y412607D01*
X376064Y412657D01*
X376019Y412709D01*
X375976Y412763D01*
X375937Y412819D01*
X375901Y412878D01*
X375868Y412938D01*
X375839Y413001D01*
X375813Y413064D01*
X375791Y413129D01*
X375772Y413196D01*
X375757Y413263D01*
X375746Y413331D01*
X375738Y413399D01*
X375734Y413468D01*
X375734Y413536D01*
X375738Y413605D01*
X375746Y413673D01*
X375757Y413741D01*
X375772Y413808D01*
X375791Y413875D01*
X375813Y413940D01*
X375839Y414003D01*
X375868Y414066D01*
X375901Y414126D01*
X375937Y414185D01*
X375976Y414241D01*
X376019Y414295D01*
X376064Y414347D01*
X376112Y414397D01*
X376162Y414443D01*
X376215Y414487D01*
X376271Y414528D01*
X376328Y414565D01*
X376388Y414600D01*
X376449Y414631D01*
X376512Y414658D01*
X376577Y414682D01*
X376642Y414703D01*
X376709Y414720D01*
X376777Y414733D01*
X376845Y414742D01*
X376913Y414748D01*
X376982Y414750D01*
X376732Y416746D02*
X378230Y416746D01*
X376732Y416746D02*
X376671Y416744D01*
X376609Y416738D01*
X376549Y416729D01*
X376489Y416716D01*
X376429Y416699D01*
X376371Y416679D01*
X376315Y416655D01*
X376260Y416627D01*
X376207Y416597D01*
X376155Y416563D01*
X376106Y416526D01*
X376060Y416486D01*
X376016Y416443D01*
X375974Y416397D01*
X375936Y416349D01*
X375900Y416299D01*
X375868Y416247D01*
X375839Y416193D01*
X375813Y416137D01*
X375791Y416080D01*
X375772Y416021D01*
X375757Y415962D01*
X375746Y415901D01*
X375738Y415840D01*
X375734Y415779D01*
X375734Y415717D01*
X375738Y415656D01*
X375746Y415595D01*
X375757Y415534D01*
X375772Y415475D01*
X375791Y415416D01*
X375813Y415359D01*
X375839Y415303D01*
X375868Y415249D01*
X375900Y415197D01*
X375936Y415147D01*
X375974Y415099D01*
X376016Y415053D01*
X376060Y415010D01*
X376106Y414970D01*
X376155Y414933D01*
X376207Y414899D01*
X376260Y414869D01*
X376315Y414841D01*
X376371Y414817D01*
X376429Y414797D01*
X376489Y414780D01*
X376549Y414767D01*
X376609Y414758D01*
X376671Y414752D01*
X376732Y414750D01*
X377730Y414750D01*
X373730Y413502D02*
X373728Y413571D01*
X373722Y413639D01*
X373713Y413707D01*
X373700Y413775D01*
X373683Y413842D01*
X373662Y413907D01*
X373638Y413972D01*
X373611Y414035D01*
X373580Y414096D01*
X373545Y414156D01*
X373508Y414213D01*
X373467Y414269D01*
X373423Y414322D01*
X373377Y414372D01*
X373327Y414420D01*
X373275Y414465D01*
X373221Y414508D01*
X373165Y414547D01*
X373106Y414583D01*
X373046Y414616D01*
X372983Y414645D01*
X372920Y414671D01*
X372855Y414693D01*
X372788Y414712D01*
X372721Y414727D01*
X372653Y414738D01*
X372585Y414746D01*
X372516Y414750D01*
X372448Y414750D01*
X372379Y414746D01*
X372311Y414738D01*
X372243Y414727D01*
X372176Y414712D01*
X372109Y414693D01*
X372044Y414671D01*
X371981Y414645D01*
X371918Y414616D01*
X371858Y414583D01*
X371799Y414547D01*
X371743Y414508D01*
X371689Y414465D01*
X371637Y414420D01*
X371587Y414372D01*
X371541Y414322D01*
X371497Y414269D01*
X371456Y414213D01*
X371419Y414156D01*
X371384Y414096D01*
X371353Y414035D01*
X371326Y413972D01*
X371302Y413907D01*
X371281Y413842D01*
X371264Y413775D01*
X371251Y413707D01*
X371242Y413639D01*
X371236Y413571D01*
X371234Y413502D01*
X371236Y413433D01*
X371242Y413365D01*
X371251Y413297D01*
X371264Y413229D01*
X371281Y413162D01*
X371302Y413097D01*
X371326Y413032D01*
X371353Y412969D01*
X371384Y412908D01*
X371419Y412848D01*
X371456Y412791D01*
X371497Y412735D01*
X371541Y412682D01*
X371587Y412632D01*
X371637Y412584D01*
X371689Y412539D01*
X371743Y412496D01*
X371799Y412457D01*
X371858Y412421D01*
X371918Y412388D01*
X371981Y412359D01*
X372044Y412333D01*
X372109Y412311D01*
X372176Y412292D01*
X372243Y412277D01*
X372311Y412266D01*
X372379Y412258D01*
X372448Y412254D01*
X372516Y412254D01*
X372585Y412258D01*
X372653Y412266D01*
X372721Y412277D01*
X372788Y412292D01*
X372855Y412311D01*
X372920Y412333D01*
X372983Y412359D01*
X373046Y412388D01*
X373106Y412421D01*
X373165Y412457D01*
X373221Y412496D01*
X373275Y412539D01*
X373327Y412584D01*
X373377Y412632D01*
X373423Y412682D01*
X373467Y412735D01*
X373508Y412791D01*
X373545Y412848D01*
X373580Y412908D01*
X373611Y412969D01*
X373638Y413032D01*
X373662Y413097D01*
X373683Y413162D01*
X373700Y413229D01*
X373713Y413297D01*
X373722Y413365D01*
X373728Y413433D01*
X373730Y413502D01*
X373480Y415748D02*
X373478Y415809D01*
X373472Y415871D01*
X373463Y415931D01*
X373450Y415991D01*
X373433Y416051D01*
X373413Y416109D01*
X373389Y416165D01*
X373361Y416220D01*
X373331Y416273D01*
X373297Y416325D01*
X373260Y416374D01*
X373220Y416420D01*
X373177Y416464D01*
X373131Y416506D01*
X373083Y416544D01*
X373033Y416580D01*
X372981Y416612D01*
X372927Y416641D01*
X372871Y416667D01*
X372814Y416689D01*
X372755Y416708D01*
X372696Y416723D01*
X372635Y416734D01*
X372574Y416742D01*
X372513Y416746D01*
X372451Y416746D01*
X372390Y416742D01*
X372329Y416734D01*
X372268Y416723D01*
X372209Y416708D01*
X372150Y416689D01*
X372093Y416667D01*
X372037Y416641D01*
X371983Y416612D01*
X371931Y416580D01*
X371881Y416544D01*
X371833Y416506D01*
X371787Y416464D01*
X371744Y416420D01*
X371704Y416374D01*
X371667Y416325D01*
X371633Y416273D01*
X371603Y416220D01*
X371575Y416165D01*
X371551Y416109D01*
X371531Y416051D01*
X371514Y415991D01*
X371501Y415931D01*
X371492Y415871D01*
X371486Y415809D01*
X371484Y415748D01*
X371486Y415687D01*
X371492Y415625D01*
X371501Y415565D01*
X371514Y415505D01*
X371531Y415445D01*
X371551Y415387D01*
X371575Y415331D01*
X371603Y415276D01*
X371633Y415223D01*
X371667Y415171D01*
X371704Y415122D01*
X371744Y415076D01*
X371787Y415032D01*
X371833Y414990D01*
X371881Y414952D01*
X371931Y414916D01*
X371983Y414884D01*
X372037Y414855D01*
X372093Y414829D01*
X372150Y414807D01*
X372209Y414788D01*
X372268Y414773D01*
X372329Y414762D01*
X372390Y414754D01*
X372451Y414750D01*
X372513Y414750D01*
X372574Y414754D01*
X372635Y414762D01*
X372696Y414773D01*
X372755Y414788D01*
X372814Y414807D01*
X372871Y414829D01*
X372927Y414855D01*
X372981Y414884D01*
X373033Y414916D01*
X373083Y414952D01*
X373131Y414990D01*
X373177Y415032D01*
X373220Y415076D01*
X373260Y415122D01*
X373297Y415171D01*
X373331Y415223D01*
X373361Y415276D01*
X373389Y415331D01*
X373413Y415387D01*
X373433Y415445D01*
X373450Y415505D01*
X373463Y415565D01*
X373472Y415625D01*
X373478Y415687D01*
X373480Y415748D01*
X382697Y445274D02*
X382697Y449766D01*
X381449Y449766D01*
X381380Y449764D01*
X381312Y449758D01*
X381244Y449749D01*
X381176Y449736D01*
X381109Y449719D01*
X381044Y449698D01*
X380979Y449674D01*
X380916Y449647D01*
X380855Y449616D01*
X380795Y449581D01*
X380738Y449544D01*
X380682Y449503D01*
X380629Y449459D01*
X380579Y449413D01*
X380531Y449363D01*
X380486Y449311D01*
X380443Y449257D01*
X380404Y449201D01*
X380368Y449142D01*
X380335Y449082D01*
X380306Y449019D01*
X380280Y448956D01*
X380258Y448891D01*
X380239Y448824D01*
X380224Y448757D01*
X380213Y448689D01*
X380205Y448621D01*
X380201Y448552D01*
X380201Y448484D01*
X380205Y448415D01*
X380213Y448347D01*
X380224Y448279D01*
X380239Y448212D01*
X380258Y448145D01*
X380280Y448080D01*
X380306Y448017D01*
X380335Y447954D01*
X380368Y447894D01*
X380404Y447835D01*
X380443Y447779D01*
X380486Y447725D01*
X380531Y447673D01*
X380579Y447623D01*
X380629Y447577D01*
X380682Y447533D01*
X380738Y447492D01*
X380795Y447455D01*
X380855Y447420D01*
X380916Y447389D01*
X380979Y447362D01*
X381044Y447338D01*
X381109Y447317D01*
X381176Y447300D01*
X381244Y447287D01*
X381312Y447278D01*
X381380Y447272D01*
X381449Y447270D01*
X382697Y447270D01*
X381199Y447270D02*
X380201Y445274D01*
X378230Y445274D02*
X376982Y445274D01*
X376913Y445276D01*
X376845Y445282D01*
X376777Y445291D01*
X376709Y445304D01*
X376642Y445321D01*
X376577Y445342D01*
X376512Y445366D01*
X376449Y445393D01*
X376388Y445424D01*
X376328Y445459D01*
X376271Y445496D01*
X376215Y445537D01*
X376162Y445581D01*
X376112Y445627D01*
X376064Y445677D01*
X376019Y445729D01*
X375976Y445783D01*
X375937Y445839D01*
X375901Y445898D01*
X375868Y445958D01*
X375839Y446021D01*
X375813Y446084D01*
X375791Y446149D01*
X375772Y446216D01*
X375757Y446283D01*
X375746Y446351D01*
X375738Y446419D01*
X375734Y446488D01*
X375734Y446556D01*
X375738Y446625D01*
X375746Y446693D01*
X375757Y446761D01*
X375772Y446828D01*
X375791Y446895D01*
X375813Y446960D01*
X375839Y447023D01*
X375868Y447086D01*
X375901Y447146D01*
X375937Y447205D01*
X375976Y447261D01*
X376019Y447315D01*
X376064Y447367D01*
X376112Y447417D01*
X376162Y447463D01*
X376215Y447507D01*
X376271Y447548D01*
X376328Y447585D01*
X376388Y447620D01*
X376449Y447651D01*
X376512Y447678D01*
X376577Y447702D01*
X376642Y447723D01*
X376709Y447740D01*
X376777Y447753D01*
X376845Y447762D01*
X376913Y447768D01*
X376982Y447770D01*
X376732Y449766D02*
X378230Y449766D01*
X376732Y449766D02*
X376671Y449764D01*
X376609Y449758D01*
X376549Y449749D01*
X376489Y449736D01*
X376429Y449719D01*
X376371Y449699D01*
X376315Y449675D01*
X376260Y449647D01*
X376207Y449617D01*
X376155Y449583D01*
X376106Y449546D01*
X376060Y449506D01*
X376016Y449463D01*
X375974Y449417D01*
X375936Y449369D01*
X375900Y449319D01*
X375868Y449267D01*
X375839Y449213D01*
X375813Y449157D01*
X375791Y449100D01*
X375772Y449041D01*
X375757Y448982D01*
X375746Y448921D01*
X375738Y448860D01*
X375734Y448799D01*
X375734Y448737D01*
X375738Y448676D01*
X375746Y448615D01*
X375757Y448554D01*
X375772Y448495D01*
X375791Y448436D01*
X375813Y448379D01*
X375839Y448323D01*
X375868Y448269D01*
X375900Y448217D01*
X375936Y448167D01*
X375974Y448119D01*
X376016Y448073D01*
X376060Y448030D01*
X376106Y447990D01*
X376155Y447953D01*
X376207Y447919D01*
X376260Y447889D01*
X376315Y447861D01*
X376371Y447837D01*
X376429Y447817D01*
X376489Y447800D01*
X376549Y447787D01*
X376609Y447778D01*
X376671Y447772D01*
X376732Y447770D01*
X377730Y447770D01*
X372731Y447270D02*
X371234Y447270D01*
X372731Y447271D02*
X372791Y447273D01*
X372851Y447278D01*
X372911Y447287D01*
X372970Y447300D01*
X373028Y447316D01*
X373085Y447336D01*
X373141Y447359D01*
X373195Y447385D01*
X373247Y447415D01*
X373298Y447448D01*
X373346Y447483D01*
X373393Y447522D01*
X373437Y447563D01*
X373478Y447607D01*
X373517Y447654D01*
X373552Y447702D01*
X373585Y447753D01*
X373615Y447805D01*
X373641Y447859D01*
X373664Y447915D01*
X373684Y447972D01*
X373700Y448030D01*
X373713Y448089D01*
X373722Y448149D01*
X373727Y448209D01*
X373729Y448269D01*
X373730Y448269D02*
X373730Y448518D01*
X373728Y448587D01*
X373722Y448655D01*
X373713Y448723D01*
X373700Y448791D01*
X373683Y448858D01*
X373662Y448923D01*
X373638Y448988D01*
X373611Y449051D01*
X373580Y449112D01*
X373545Y449172D01*
X373508Y449229D01*
X373467Y449285D01*
X373423Y449338D01*
X373377Y449388D01*
X373327Y449436D01*
X373275Y449481D01*
X373221Y449524D01*
X373165Y449563D01*
X373106Y449599D01*
X373046Y449632D01*
X372983Y449661D01*
X372920Y449687D01*
X372855Y449709D01*
X372788Y449728D01*
X372721Y449743D01*
X372653Y449754D01*
X372585Y449762D01*
X372516Y449766D01*
X372448Y449766D01*
X372379Y449762D01*
X372311Y449754D01*
X372243Y449743D01*
X372176Y449728D01*
X372109Y449709D01*
X372044Y449687D01*
X371981Y449661D01*
X371918Y449632D01*
X371858Y449599D01*
X371799Y449563D01*
X371743Y449524D01*
X371689Y449481D01*
X371637Y449436D01*
X371587Y449388D01*
X371541Y449338D01*
X371497Y449285D01*
X371456Y449229D01*
X371419Y449172D01*
X371384Y449112D01*
X371353Y449051D01*
X371326Y448988D01*
X371302Y448923D01*
X371281Y448858D01*
X371264Y448791D01*
X371251Y448723D01*
X371242Y448655D01*
X371236Y448587D01*
X371234Y448518D01*
X371234Y447270D01*
X371236Y447183D01*
X371242Y447096D01*
X371251Y447009D01*
X371264Y446923D01*
X371281Y446838D01*
X371302Y446753D01*
X371326Y446670D01*
X371354Y446587D01*
X371386Y446506D01*
X371421Y446426D01*
X371460Y446348D01*
X371501Y446272D01*
X371547Y446198D01*
X371595Y446125D01*
X371646Y446055D01*
X371701Y445987D01*
X371758Y445922D01*
X371819Y445859D01*
X371882Y445798D01*
X371947Y445741D01*
X372015Y445686D01*
X372085Y445635D01*
X372158Y445587D01*
X372232Y445541D01*
X372308Y445500D01*
X372386Y445461D01*
X372466Y445426D01*
X372547Y445394D01*
X372630Y445366D01*
X372713Y445342D01*
X372798Y445321D01*
X372883Y445304D01*
X372969Y445291D01*
X373056Y445282D01*
X373143Y445276D01*
X373230Y445274D01*
X382697Y478294D02*
X382697Y482786D01*
X381449Y482786D01*
X381380Y482784D01*
X381312Y482778D01*
X381244Y482769D01*
X381176Y482756D01*
X381109Y482739D01*
X381044Y482718D01*
X380979Y482694D01*
X380916Y482667D01*
X380855Y482636D01*
X380795Y482601D01*
X380738Y482564D01*
X380682Y482523D01*
X380629Y482479D01*
X380579Y482433D01*
X380531Y482383D01*
X380486Y482331D01*
X380443Y482277D01*
X380404Y482221D01*
X380368Y482162D01*
X380335Y482102D01*
X380306Y482039D01*
X380280Y481976D01*
X380258Y481911D01*
X380239Y481844D01*
X380224Y481777D01*
X380213Y481709D01*
X380205Y481641D01*
X380201Y481572D01*
X380201Y481504D01*
X380205Y481435D01*
X380213Y481367D01*
X380224Y481299D01*
X380239Y481232D01*
X380258Y481165D01*
X380280Y481100D01*
X380306Y481037D01*
X380335Y480974D01*
X380368Y480914D01*
X380404Y480855D01*
X380443Y480799D01*
X380486Y480745D01*
X380531Y480693D01*
X380579Y480643D01*
X380629Y480597D01*
X380682Y480553D01*
X380738Y480512D01*
X380795Y480475D01*
X380855Y480440D01*
X380916Y480409D01*
X380979Y480382D01*
X381044Y480358D01*
X381109Y480337D01*
X381176Y480320D01*
X381244Y480307D01*
X381312Y480298D01*
X381380Y480292D01*
X381449Y480290D01*
X382697Y480290D01*
X381199Y480290D02*
X380201Y478294D01*
X378230Y479292D02*
X377231Y482786D01*
X378230Y479292D02*
X375734Y479292D01*
X376483Y480290D02*
X376483Y478294D01*
X373730Y480540D02*
X373728Y480660D01*
X373722Y480780D01*
X373713Y480899D01*
X373699Y481018D01*
X373682Y481137D01*
X373660Y481255D01*
X373635Y481372D01*
X373606Y481489D01*
X373574Y481604D01*
X373537Y481719D01*
X373497Y481832D01*
X373454Y481943D01*
X373406Y482054D01*
X373356Y482162D01*
X373355Y482162D02*
X373334Y482219D01*
X373309Y482273D01*
X373280Y482327D01*
X373248Y482378D01*
X373213Y482427D01*
X373175Y482473D01*
X373133Y482517D01*
X373089Y482558D01*
X373043Y482596D01*
X372994Y482631D01*
X372942Y482663D01*
X372889Y482691D01*
X372834Y482716D01*
X372778Y482737D01*
X372720Y482755D01*
X372662Y482768D01*
X372602Y482778D01*
X372542Y482784D01*
X372482Y482786D01*
X372422Y482784D01*
X372362Y482778D01*
X372302Y482768D01*
X372244Y482755D01*
X372186Y482737D01*
X372130Y482716D01*
X372075Y482691D01*
X372022Y482663D01*
X371970Y482631D01*
X371921Y482596D01*
X371875Y482558D01*
X371831Y482517D01*
X371789Y482473D01*
X371751Y482427D01*
X371716Y482378D01*
X371684Y482327D01*
X371655Y482274D01*
X371630Y482219D01*
X371609Y482162D01*
X371608Y482162D02*
X371558Y482054D01*
X371510Y481943D01*
X371467Y481832D01*
X371427Y481719D01*
X371390Y481604D01*
X371358Y481489D01*
X371329Y481372D01*
X371304Y481255D01*
X371282Y481137D01*
X371265Y481018D01*
X371251Y480899D01*
X371242Y480780D01*
X371236Y480660D01*
X371234Y480540D01*
X373730Y480540D02*
X373728Y480420D01*
X373722Y480300D01*
X373713Y480181D01*
X373699Y480062D01*
X373682Y479943D01*
X373660Y479825D01*
X373635Y479708D01*
X373606Y479591D01*
X373574Y479476D01*
X373537Y479362D01*
X373497Y479248D01*
X373454Y479137D01*
X373406Y479027D01*
X373356Y478918D01*
X373355Y478918D02*
X373334Y478861D01*
X373309Y478807D01*
X373280Y478753D01*
X373248Y478702D01*
X373213Y478653D01*
X373175Y478607D01*
X373133Y478563D01*
X373089Y478522D01*
X373043Y478484D01*
X372994Y478449D01*
X372942Y478417D01*
X372889Y478389D01*
X372834Y478364D01*
X372778Y478343D01*
X372720Y478325D01*
X372662Y478312D01*
X372602Y478302D01*
X372542Y478296D01*
X372482Y478294D01*
X371608Y478918D02*
X371558Y479027D01*
X371510Y479137D01*
X371467Y479248D01*
X371427Y479362D01*
X371390Y479476D01*
X371358Y479591D01*
X371329Y479708D01*
X371304Y479825D01*
X371282Y479943D01*
X371265Y480062D01*
X371251Y480181D01*
X371242Y480300D01*
X371236Y480420D01*
X371234Y480540D01*
X371609Y478918D02*
X371630Y478861D01*
X371655Y478806D01*
X371684Y478753D01*
X371716Y478702D01*
X371751Y478653D01*
X371789Y478607D01*
X371831Y478563D01*
X371875Y478522D01*
X371921Y478484D01*
X371970Y478449D01*
X372022Y478417D01*
X372075Y478389D01*
X372130Y478364D01*
X372186Y478343D01*
X372244Y478325D01*
X372302Y478312D01*
X372362Y478302D01*
X372422Y478296D01*
X372482Y478294D01*
X373480Y479292D02*
X371484Y481788D01*
X382697Y511314D02*
X382697Y515806D01*
X381449Y515806D01*
X381380Y515804D01*
X381312Y515798D01*
X381244Y515789D01*
X381176Y515776D01*
X381109Y515759D01*
X381044Y515738D01*
X380979Y515714D01*
X380916Y515687D01*
X380855Y515656D01*
X380795Y515621D01*
X380738Y515584D01*
X380682Y515543D01*
X380629Y515499D01*
X380579Y515453D01*
X380531Y515403D01*
X380486Y515351D01*
X380443Y515297D01*
X380404Y515241D01*
X380368Y515182D01*
X380335Y515122D01*
X380306Y515059D01*
X380280Y514996D01*
X380258Y514931D01*
X380239Y514864D01*
X380224Y514797D01*
X380213Y514729D01*
X380205Y514661D01*
X380201Y514592D01*
X380201Y514524D01*
X380205Y514455D01*
X380213Y514387D01*
X380224Y514319D01*
X380239Y514252D01*
X380258Y514185D01*
X380280Y514120D01*
X380306Y514057D01*
X380335Y513994D01*
X380368Y513934D01*
X380404Y513875D01*
X380443Y513819D01*
X380486Y513765D01*
X380531Y513713D01*
X380579Y513663D01*
X380629Y513617D01*
X380682Y513573D01*
X380738Y513532D01*
X380795Y513495D01*
X380855Y513460D01*
X380916Y513429D01*
X380979Y513402D01*
X381044Y513378D01*
X381109Y513357D01*
X381176Y513340D01*
X381244Y513327D01*
X381312Y513318D01*
X381380Y513312D01*
X381449Y513310D01*
X382697Y513310D01*
X381199Y513310D02*
X380201Y511314D01*
X378230Y512312D02*
X377231Y515806D01*
X378230Y512312D02*
X375734Y512312D01*
X376483Y513310D02*
X376483Y511314D01*
X373730Y514808D02*
X372482Y515806D01*
X372482Y511314D01*
X373730Y511314D02*
X371234Y511314D01*
X382697Y544334D02*
X382697Y548826D01*
X381449Y548826D01*
X381380Y548824D01*
X381312Y548818D01*
X381244Y548809D01*
X381176Y548796D01*
X381109Y548779D01*
X381044Y548758D01*
X380979Y548734D01*
X380916Y548707D01*
X380855Y548676D01*
X380795Y548641D01*
X380738Y548604D01*
X380682Y548563D01*
X380629Y548519D01*
X380579Y548473D01*
X380531Y548423D01*
X380486Y548371D01*
X380443Y548317D01*
X380404Y548261D01*
X380368Y548202D01*
X380335Y548142D01*
X380306Y548079D01*
X380280Y548016D01*
X380258Y547951D01*
X380239Y547884D01*
X380224Y547817D01*
X380213Y547749D01*
X380205Y547681D01*
X380201Y547612D01*
X380201Y547544D01*
X380205Y547475D01*
X380213Y547407D01*
X380224Y547339D01*
X380239Y547272D01*
X380258Y547205D01*
X380280Y547140D01*
X380306Y547077D01*
X380335Y547014D01*
X380368Y546954D01*
X380404Y546895D01*
X380443Y546839D01*
X380486Y546785D01*
X380531Y546733D01*
X380579Y546683D01*
X380629Y546637D01*
X380682Y546593D01*
X380738Y546552D01*
X380795Y546515D01*
X380855Y546480D01*
X380916Y546449D01*
X380979Y546422D01*
X381044Y546398D01*
X381109Y546377D01*
X381176Y546360D01*
X381244Y546347D01*
X381312Y546338D01*
X381380Y546332D01*
X381449Y546330D01*
X382697Y546330D01*
X381199Y546330D02*
X380201Y544334D01*
X378230Y545332D02*
X377231Y548826D01*
X378230Y545332D02*
X375734Y545332D01*
X376483Y546330D02*
X376483Y544334D01*
X372357Y548826D02*
X372292Y548824D01*
X372227Y548818D01*
X372162Y548809D01*
X372098Y548796D01*
X372035Y548779D01*
X371973Y548758D01*
X371912Y548734D01*
X371853Y548707D01*
X371796Y548676D01*
X371740Y548641D01*
X371686Y548604D01*
X371635Y548563D01*
X371586Y548520D01*
X371540Y548474D01*
X371497Y548425D01*
X371456Y548374D01*
X371419Y548320D01*
X371384Y548265D01*
X371353Y548207D01*
X371326Y548148D01*
X371302Y548087D01*
X371281Y548025D01*
X371264Y547962D01*
X371251Y547898D01*
X371242Y547833D01*
X371236Y547768D01*
X371234Y547703D01*
X372357Y548826D02*
X372430Y548824D01*
X372502Y548819D01*
X372574Y548810D01*
X372645Y548797D01*
X372716Y548781D01*
X372786Y548761D01*
X372855Y548737D01*
X372922Y548711D01*
X372988Y548681D01*
X373053Y548647D01*
X373115Y548611D01*
X373176Y548571D01*
X373235Y548528D01*
X373291Y548483D01*
X373345Y548434D01*
X373397Y548383D01*
X373446Y548330D01*
X373492Y548274D01*
X373536Y548216D01*
X373576Y548155D01*
X373613Y548093D01*
X373647Y548029D01*
X373678Y547963D01*
X373706Y547896D01*
X373730Y547828D01*
X371608Y546830D02*
X371562Y546876D01*
X371519Y546924D01*
X371478Y546975D01*
X371440Y547028D01*
X371405Y547083D01*
X371374Y547140D01*
X371345Y547198D01*
X371319Y547258D01*
X371297Y547319D01*
X371278Y547381D01*
X371262Y547445D01*
X371250Y547509D01*
X371241Y547573D01*
X371236Y547638D01*
X371234Y547703D01*
X371608Y546830D02*
X373730Y544334D01*
X371234Y544334D01*
X382697Y577354D02*
X382697Y581846D01*
X381449Y581846D01*
X381380Y581844D01*
X381312Y581838D01*
X381244Y581829D01*
X381176Y581816D01*
X381109Y581799D01*
X381044Y581778D01*
X380979Y581754D01*
X380916Y581727D01*
X380855Y581696D01*
X380795Y581661D01*
X380738Y581624D01*
X380682Y581583D01*
X380629Y581539D01*
X380579Y581493D01*
X380531Y581443D01*
X380486Y581391D01*
X380443Y581337D01*
X380404Y581281D01*
X380368Y581222D01*
X380335Y581162D01*
X380306Y581099D01*
X380280Y581036D01*
X380258Y580971D01*
X380239Y580904D01*
X380224Y580837D01*
X380213Y580769D01*
X380205Y580701D01*
X380201Y580632D01*
X380201Y580564D01*
X380205Y580495D01*
X380213Y580427D01*
X380224Y580359D01*
X380239Y580292D01*
X380258Y580225D01*
X380280Y580160D01*
X380306Y580097D01*
X380335Y580034D01*
X380368Y579974D01*
X380404Y579915D01*
X380443Y579859D01*
X380486Y579805D01*
X380531Y579753D01*
X380579Y579703D01*
X380629Y579657D01*
X380682Y579613D01*
X380738Y579572D01*
X380795Y579535D01*
X380855Y579500D01*
X380916Y579469D01*
X380979Y579442D01*
X381044Y579418D01*
X381109Y579397D01*
X381176Y579380D01*
X381244Y579367D01*
X381312Y579358D01*
X381380Y579352D01*
X381449Y579350D01*
X382697Y579350D01*
X381199Y579350D02*
X380201Y577354D01*
X378230Y578352D02*
X377231Y581846D01*
X378230Y578352D02*
X375734Y578352D01*
X376483Y579350D02*
X376483Y577354D01*
X373730Y577354D02*
X372482Y577354D01*
X372413Y577356D01*
X372345Y577362D01*
X372277Y577371D01*
X372209Y577384D01*
X372142Y577401D01*
X372077Y577422D01*
X372012Y577446D01*
X371949Y577473D01*
X371888Y577504D01*
X371828Y577539D01*
X371771Y577576D01*
X371715Y577617D01*
X371662Y577661D01*
X371612Y577707D01*
X371564Y577757D01*
X371519Y577809D01*
X371476Y577863D01*
X371437Y577919D01*
X371401Y577978D01*
X371368Y578038D01*
X371339Y578101D01*
X371313Y578164D01*
X371291Y578229D01*
X371272Y578296D01*
X371257Y578363D01*
X371246Y578431D01*
X371238Y578499D01*
X371234Y578568D01*
X371234Y578636D01*
X371238Y578705D01*
X371246Y578773D01*
X371257Y578841D01*
X371272Y578908D01*
X371291Y578975D01*
X371313Y579040D01*
X371339Y579103D01*
X371368Y579166D01*
X371401Y579226D01*
X371437Y579285D01*
X371476Y579341D01*
X371519Y579395D01*
X371564Y579447D01*
X371612Y579497D01*
X371662Y579543D01*
X371715Y579587D01*
X371771Y579628D01*
X371828Y579665D01*
X371888Y579700D01*
X371949Y579731D01*
X372012Y579758D01*
X372077Y579782D01*
X372142Y579803D01*
X372209Y579820D01*
X372277Y579833D01*
X372345Y579842D01*
X372413Y579848D01*
X372482Y579850D01*
X372232Y581846D02*
X373730Y581846D01*
X372232Y581846D02*
X372171Y581844D01*
X372109Y581838D01*
X372049Y581829D01*
X371989Y581816D01*
X371929Y581799D01*
X371871Y581779D01*
X371815Y581755D01*
X371760Y581727D01*
X371707Y581697D01*
X371655Y581663D01*
X371606Y581626D01*
X371560Y581586D01*
X371516Y581543D01*
X371474Y581497D01*
X371436Y581449D01*
X371400Y581399D01*
X371368Y581347D01*
X371339Y581293D01*
X371313Y581237D01*
X371291Y581180D01*
X371272Y581121D01*
X371257Y581062D01*
X371246Y581001D01*
X371238Y580940D01*
X371234Y580879D01*
X371234Y580817D01*
X371238Y580756D01*
X371246Y580695D01*
X371257Y580634D01*
X371272Y580575D01*
X371291Y580516D01*
X371313Y580459D01*
X371339Y580403D01*
X371368Y580349D01*
X371400Y580297D01*
X371436Y580247D01*
X371474Y580199D01*
X371516Y580153D01*
X371560Y580110D01*
X371606Y580070D01*
X371655Y580033D01*
X371707Y579999D01*
X371760Y579969D01*
X371815Y579941D01*
X371871Y579917D01*
X371929Y579897D01*
X371989Y579880D01*
X372049Y579867D01*
X372109Y579858D01*
X372171Y579852D01*
X372232Y579850D01*
X373230Y579850D01*
X382697Y617374D02*
X382697Y621866D01*
X381449Y621866D01*
X381380Y621864D01*
X381312Y621858D01*
X381244Y621849D01*
X381176Y621836D01*
X381109Y621819D01*
X381044Y621798D01*
X380979Y621774D01*
X380916Y621747D01*
X380855Y621716D01*
X380795Y621681D01*
X380738Y621644D01*
X380682Y621603D01*
X380629Y621559D01*
X380579Y621513D01*
X380531Y621463D01*
X380486Y621411D01*
X380443Y621357D01*
X380404Y621301D01*
X380368Y621242D01*
X380335Y621182D01*
X380306Y621119D01*
X380280Y621056D01*
X380258Y620991D01*
X380239Y620924D01*
X380224Y620857D01*
X380213Y620789D01*
X380205Y620721D01*
X380201Y620652D01*
X380201Y620584D01*
X380205Y620515D01*
X380213Y620447D01*
X380224Y620379D01*
X380239Y620312D01*
X380258Y620245D01*
X380280Y620180D01*
X380306Y620117D01*
X380335Y620054D01*
X380368Y619994D01*
X380404Y619935D01*
X380443Y619879D01*
X380486Y619825D01*
X380531Y619773D01*
X380579Y619723D01*
X380629Y619677D01*
X380682Y619633D01*
X380738Y619592D01*
X380795Y619555D01*
X380855Y619520D01*
X380916Y619489D01*
X380979Y619462D01*
X381044Y619438D01*
X381109Y619417D01*
X381176Y619400D01*
X381244Y619387D01*
X381312Y619378D01*
X381380Y619372D01*
X381449Y619370D01*
X382697Y619370D01*
X381199Y619370D02*
X380201Y617374D01*
X378230Y618372D02*
X377231Y621866D01*
X378230Y618372D02*
X375734Y618372D01*
X376483Y619370D02*
X376483Y617374D01*
X373730Y618372D02*
X372731Y621866D01*
X373730Y618372D02*
X371234Y618372D01*
X371983Y619370D02*
X371983Y617374D01*
X1241666Y-1395434D02*
X1241666Y-1399926D01*
X1241666Y-1395434D02*
X1240418Y-1395434D01*
X1240349Y-1395436D01*
X1240281Y-1395442D01*
X1240213Y-1395451D01*
X1240145Y-1395464D01*
X1240078Y-1395481D01*
X1240013Y-1395502D01*
X1239948Y-1395526D01*
X1239885Y-1395553D01*
X1239824Y-1395584D01*
X1239764Y-1395619D01*
X1239707Y-1395656D01*
X1239651Y-1395697D01*
X1239598Y-1395741D01*
X1239548Y-1395787D01*
X1239500Y-1395837D01*
X1239455Y-1395889D01*
X1239412Y-1395943D01*
X1239373Y-1395999D01*
X1239337Y-1396058D01*
X1239304Y-1396118D01*
X1239275Y-1396181D01*
X1239249Y-1396244D01*
X1239227Y-1396309D01*
X1239208Y-1396376D01*
X1239193Y-1396443D01*
X1239182Y-1396511D01*
X1239174Y-1396579D01*
X1239170Y-1396648D01*
X1239170Y-1396716D01*
X1239174Y-1396785D01*
X1239182Y-1396853D01*
X1239193Y-1396921D01*
X1239208Y-1396988D01*
X1239227Y-1397055D01*
X1239249Y-1397120D01*
X1239275Y-1397183D01*
X1239304Y-1397246D01*
X1239337Y-1397306D01*
X1239373Y-1397365D01*
X1239412Y-1397421D01*
X1239455Y-1397475D01*
X1239500Y-1397527D01*
X1239548Y-1397577D01*
X1239598Y-1397623D01*
X1239651Y-1397667D01*
X1239707Y-1397708D01*
X1239764Y-1397745D01*
X1239824Y-1397780D01*
X1239885Y-1397811D01*
X1239948Y-1397838D01*
X1240013Y-1397862D01*
X1240078Y-1397883D01*
X1240145Y-1397900D01*
X1240213Y-1397913D01*
X1240281Y-1397922D01*
X1240349Y-1397928D01*
X1240418Y-1397930D01*
X1241666Y-1397930D01*
X1240169Y-1397930D02*
X1239170Y-1399926D01*
X1237199Y-1398928D02*
X1236201Y-1395434D01*
X1237199Y-1398928D02*
X1234703Y-1398928D01*
X1235452Y-1397930D02*
X1235452Y-1399926D01*
X1232699Y-1399926D02*
X1231202Y-1399926D01*
X1231139Y-1399924D01*
X1231077Y-1399918D01*
X1231015Y-1399908D01*
X1230954Y-1399895D01*
X1230894Y-1399877D01*
X1230835Y-1399856D01*
X1230777Y-1399831D01*
X1230721Y-1399803D01*
X1230667Y-1399771D01*
X1230615Y-1399735D01*
X1230566Y-1399697D01*
X1230519Y-1399656D01*
X1230475Y-1399611D01*
X1230433Y-1399564D01*
X1230395Y-1399515D01*
X1230359Y-1399463D01*
X1230327Y-1399409D01*
X1230299Y-1399353D01*
X1230274Y-1399295D01*
X1230253Y-1399236D01*
X1230235Y-1399176D01*
X1230222Y-1399115D01*
X1230212Y-1399053D01*
X1230206Y-1398991D01*
X1230204Y-1398928D01*
X1230203Y-1398928D02*
X1230203Y-1398429D01*
X1230204Y-1398429D02*
X1230206Y-1398369D01*
X1230211Y-1398309D01*
X1230220Y-1398249D01*
X1230233Y-1398190D01*
X1230249Y-1398132D01*
X1230269Y-1398075D01*
X1230292Y-1398019D01*
X1230318Y-1397965D01*
X1230348Y-1397913D01*
X1230381Y-1397862D01*
X1230416Y-1397814D01*
X1230455Y-1397767D01*
X1230496Y-1397723D01*
X1230540Y-1397682D01*
X1230587Y-1397643D01*
X1230635Y-1397608D01*
X1230686Y-1397575D01*
X1230738Y-1397545D01*
X1230792Y-1397519D01*
X1230848Y-1397496D01*
X1230905Y-1397476D01*
X1230963Y-1397460D01*
X1231022Y-1397447D01*
X1231082Y-1397438D01*
X1231142Y-1397433D01*
X1231202Y-1397431D01*
X1231202Y-1397430D02*
X1232699Y-1397430D01*
X1232699Y-1395434D01*
X1230203Y-1395434D01*
X349677Y411954D02*
X349677Y416446D01*
X348429Y416446D01*
X348360Y416444D01*
X348292Y416438D01*
X348224Y416429D01*
X348156Y416416D01*
X348089Y416399D01*
X348024Y416378D01*
X347959Y416354D01*
X347896Y416327D01*
X347835Y416296D01*
X347775Y416261D01*
X347718Y416224D01*
X347662Y416183D01*
X347609Y416139D01*
X347559Y416093D01*
X347511Y416043D01*
X347466Y415991D01*
X347423Y415937D01*
X347384Y415881D01*
X347348Y415822D01*
X347315Y415762D01*
X347286Y415699D01*
X347260Y415636D01*
X347238Y415571D01*
X347219Y415504D01*
X347204Y415437D01*
X347193Y415369D01*
X347185Y415301D01*
X347181Y415232D01*
X347181Y415164D01*
X347185Y415095D01*
X347193Y415027D01*
X347204Y414959D01*
X347219Y414892D01*
X347238Y414825D01*
X347260Y414760D01*
X347286Y414697D01*
X347315Y414634D01*
X347348Y414574D01*
X347384Y414515D01*
X347423Y414459D01*
X347466Y414405D01*
X347511Y414353D01*
X347559Y414303D01*
X347609Y414257D01*
X347662Y414213D01*
X347718Y414172D01*
X347775Y414135D01*
X347835Y414100D01*
X347896Y414069D01*
X347959Y414042D01*
X348024Y414018D01*
X348089Y413997D01*
X348156Y413980D01*
X348224Y413967D01*
X348292Y413958D01*
X348360Y413952D01*
X348429Y413950D01*
X349677Y413950D01*
X348179Y413950D02*
X347181Y411954D01*
X345210Y412952D02*
X344211Y416446D01*
X345210Y412952D02*
X342714Y412952D01*
X343463Y413950D02*
X343463Y411954D01*
X340710Y414450D02*
X339212Y414450D01*
X339212Y414449D02*
X339149Y414447D01*
X339087Y414441D01*
X339025Y414431D01*
X338964Y414418D01*
X338904Y414400D01*
X338845Y414379D01*
X338787Y414354D01*
X338731Y414326D01*
X338677Y414294D01*
X338625Y414258D01*
X338576Y414220D01*
X338529Y414179D01*
X338485Y414134D01*
X338443Y414087D01*
X338405Y414038D01*
X338369Y413986D01*
X338337Y413932D01*
X338309Y413876D01*
X338284Y413818D01*
X338263Y413759D01*
X338245Y413699D01*
X338232Y413638D01*
X338222Y413576D01*
X338216Y413514D01*
X338214Y413451D01*
X338214Y413202D01*
X338216Y413133D01*
X338222Y413065D01*
X338231Y412997D01*
X338244Y412929D01*
X338261Y412862D01*
X338282Y412797D01*
X338306Y412732D01*
X338333Y412669D01*
X338364Y412608D01*
X338399Y412548D01*
X338436Y412491D01*
X338477Y412435D01*
X338521Y412382D01*
X338567Y412332D01*
X338617Y412284D01*
X338669Y412239D01*
X338723Y412196D01*
X338779Y412157D01*
X338838Y412121D01*
X338898Y412088D01*
X338961Y412059D01*
X339024Y412033D01*
X339089Y412011D01*
X339156Y411992D01*
X339223Y411977D01*
X339291Y411966D01*
X339359Y411958D01*
X339428Y411954D01*
X339496Y411954D01*
X339565Y411958D01*
X339633Y411966D01*
X339701Y411977D01*
X339768Y411992D01*
X339835Y412011D01*
X339900Y412033D01*
X339963Y412059D01*
X340026Y412088D01*
X340086Y412121D01*
X340145Y412157D01*
X340201Y412196D01*
X340255Y412239D01*
X340307Y412284D01*
X340357Y412332D01*
X340403Y412382D01*
X340447Y412435D01*
X340488Y412491D01*
X340525Y412548D01*
X340560Y412608D01*
X340591Y412669D01*
X340618Y412732D01*
X340642Y412797D01*
X340663Y412862D01*
X340680Y412929D01*
X340693Y412997D01*
X340702Y413065D01*
X340708Y413133D01*
X340710Y413202D01*
X340710Y414450D01*
X340709Y414450D02*
X340707Y414537D01*
X340701Y414624D01*
X340692Y414711D01*
X340679Y414797D01*
X340662Y414882D01*
X340641Y414967D01*
X340617Y415050D01*
X340589Y415133D01*
X340557Y415214D01*
X340522Y415294D01*
X340483Y415372D01*
X340442Y415448D01*
X340396Y415522D01*
X340348Y415595D01*
X340297Y415665D01*
X340242Y415733D01*
X340185Y415798D01*
X340124Y415861D01*
X340061Y415922D01*
X339996Y415979D01*
X339928Y416034D01*
X339858Y416085D01*
X339785Y416133D01*
X339711Y416179D01*
X339635Y416220D01*
X339557Y416259D01*
X339477Y416294D01*
X339396Y416326D01*
X339313Y416354D01*
X339230Y416378D01*
X339145Y416399D01*
X339060Y416416D01*
X338974Y416429D01*
X338887Y416438D01*
X338800Y416444D01*
X338713Y416446D01*
X349677Y444974D02*
X349677Y449466D01*
X348429Y449466D01*
X348360Y449464D01*
X348292Y449458D01*
X348224Y449449D01*
X348156Y449436D01*
X348089Y449419D01*
X348024Y449398D01*
X347959Y449374D01*
X347896Y449347D01*
X347835Y449316D01*
X347775Y449281D01*
X347718Y449244D01*
X347662Y449203D01*
X347609Y449159D01*
X347559Y449113D01*
X347511Y449063D01*
X347466Y449011D01*
X347423Y448957D01*
X347384Y448901D01*
X347348Y448842D01*
X347315Y448782D01*
X347286Y448719D01*
X347260Y448656D01*
X347238Y448591D01*
X347219Y448524D01*
X347204Y448457D01*
X347193Y448389D01*
X347185Y448321D01*
X347181Y448252D01*
X347181Y448184D01*
X347185Y448115D01*
X347193Y448047D01*
X347204Y447979D01*
X347219Y447912D01*
X347238Y447845D01*
X347260Y447780D01*
X347286Y447717D01*
X347315Y447654D01*
X347348Y447594D01*
X347384Y447535D01*
X347423Y447479D01*
X347466Y447425D01*
X347511Y447373D01*
X347559Y447323D01*
X347609Y447277D01*
X347662Y447233D01*
X347718Y447192D01*
X347775Y447155D01*
X347835Y447120D01*
X347896Y447089D01*
X347959Y447062D01*
X348024Y447038D01*
X348089Y447017D01*
X348156Y447000D01*
X348224Y446987D01*
X348292Y446978D01*
X348360Y446972D01*
X348429Y446970D01*
X349677Y446970D01*
X348179Y446970D02*
X347181Y444974D01*
X345210Y445972D02*
X344211Y449466D01*
X345210Y445972D02*
X342714Y445972D01*
X343463Y446970D02*
X343463Y444974D01*
X340710Y448967D02*
X340710Y449466D01*
X338214Y449466D01*
X339462Y444974D01*
X349677Y477994D02*
X349677Y482486D01*
X348429Y482486D01*
X348360Y482484D01*
X348292Y482478D01*
X348224Y482469D01*
X348156Y482456D01*
X348089Y482439D01*
X348024Y482418D01*
X347959Y482394D01*
X347896Y482367D01*
X347835Y482336D01*
X347775Y482301D01*
X347718Y482264D01*
X347662Y482223D01*
X347609Y482179D01*
X347559Y482133D01*
X347511Y482083D01*
X347466Y482031D01*
X347423Y481977D01*
X347384Y481921D01*
X347348Y481862D01*
X347315Y481802D01*
X347286Y481739D01*
X347260Y481676D01*
X347238Y481611D01*
X347219Y481544D01*
X347204Y481477D01*
X347193Y481409D01*
X347185Y481341D01*
X347181Y481272D01*
X347181Y481204D01*
X347185Y481135D01*
X347193Y481067D01*
X347204Y480999D01*
X347219Y480932D01*
X347238Y480865D01*
X347260Y480800D01*
X347286Y480737D01*
X347315Y480674D01*
X347348Y480614D01*
X347384Y480555D01*
X347423Y480499D01*
X347466Y480445D01*
X347511Y480393D01*
X347559Y480343D01*
X347609Y480297D01*
X347662Y480253D01*
X347718Y480212D01*
X347775Y480175D01*
X347835Y480140D01*
X347896Y480109D01*
X347959Y480082D01*
X348024Y480058D01*
X348089Y480037D01*
X348156Y480020D01*
X348224Y480007D01*
X348292Y479998D01*
X348360Y479992D01*
X348429Y479990D01*
X349677Y479990D01*
X348179Y479990D02*
X347181Y477994D01*
X345210Y478992D02*
X344211Y482486D01*
X345210Y478992D02*
X342714Y478992D01*
X343463Y479990D02*
X343463Y477994D01*
X340710Y479242D02*
X340708Y479311D01*
X340702Y479379D01*
X340693Y479447D01*
X340680Y479515D01*
X340663Y479582D01*
X340642Y479647D01*
X340618Y479712D01*
X340591Y479775D01*
X340560Y479836D01*
X340525Y479896D01*
X340488Y479953D01*
X340447Y480009D01*
X340403Y480062D01*
X340357Y480112D01*
X340307Y480160D01*
X340255Y480205D01*
X340201Y480248D01*
X340145Y480287D01*
X340086Y480323D01*
X340026Y480356D01*
X339963Y480385D01*
X339900Y480411D01*
X339835Y480433D01*
X339768Y480452D01*
X339701Y480467D01*
X339633Y480478D01*
X339565Y480486D01*
X339496Y480490D01*
X339428Y480490D01*
X339359Y480486D01*
X339291Y480478D01*
X339223Y480467D01*
X339156Y480452D01*
X339089Y480433D01*
X339024Y480411D01*
X338961Y480385D01*
X338898Y480356D01*
X338838Y480323D01*
X338779Y480287D01*
X338723Y480248D01*
X338669Y480205D01*
X338617Y480160D01*
X338567Y480112D01*
X338521Y480062D01*
X338477Y480009D01*
X338436Y479953D01*
X338399Y479896D01*
X338364Y479836D01*
X338333Y479775D01*
X338306Y479712D01*
X338282Y479647D01*
X338261Y479582D01*
X338244Y479515D01*
X338231Y479447D01*
X338222Y479379D01*
X338216Y479311D01*
X338214Y479242D01*
X338216Y479173D01*
X338222Y479105D01*
X338231Y479037D01*
X338244Y478969D01*
X338261Y478902D01*
X338282Y478837D01*
X338306Y478772D01*
X338333Y478709D01*
X338364Y478648D01*
X338399Y478588D01*
X338436Y478531D01*
X338477Y478475D01*
X338521Y478422D01*
X338567Y478372D01*
X338617Y478324D01*
X338669Y478279D01*
X338723Y478236D01*
X338779Y478197D01*
X338838Y478161D01*
X338898Y478128D01*
X338961Y478099D01*
X339024Y478073D01*
X339089Y478051D01*
X339156Y478032D01*
X339223Y478017D01*
X339291Y478006D01*
X339359Y477998D01*
X339428Y477994D01*
X339496Y477994D01*
X339565Y477998D01*
X339633Y478006D01*
X339701Y478017D01*
X339768Y478032D01*
X339835Y478051D01*
X339900Y478073D01*
X339963Y478099D01*
X340026Y478128D01*
X340086Y478161D01*
X340145Y478197D01*
X340201Y478236D01*
X340255Y478279D01*
X340307Y478324D01*
X340357Y478372D01*
X340403Y478422D01*
X340447Y478475D01*
X340488Y478531D01*
X340525Y478588D01*
X340560Y478648D01*
X340591Y478709D01*
X340618Y478772D01*
X340642Y478837D01*
X340663Y478902D01*
X340680Y478969D01*
X340693Y479037D01*
X340702Y479105D01*
X340708Y479173D01*
X340710Y479242D01*
X340460Y481488D02*
X340458Y481549D01*
X340452Y481611D01*
X340443Y481671D01*
X340430Y481731D01*
X340413Y481791D01*
X340393Y481849D01*
X340369Y481905D01*
X340341Y481960D01*
X340311Y482013D01*
X340277Y482065D01*
X340240Y482114D01*
X340200Y482160D01*
X340157Y482204D01*
X340111Y482246D01*
X340063Y482284D01*
X340013Y482320D01*
X339961Y482352D01*
X339907Y482381D01*
X339851Y482407D01*
X339794Y482429D01*
X339735Y482448D01*
X339676Y482463D01*
X339615Y482474D01*
X339554Y482482D01*
X339493Y482486D01*
X339431Y482486D01*
X339370Y482482D01*
X339309Y482474D01*
X339248Y482463D01*
X339189Y482448D01*
X339130Y482429D01*
X339073Y482407D01*
X339017Y482381D01*
X338963Y482352D01*
X338911Y482320D01*
X338861Y482284D01*
X338813Y482246D01*
X338767Y482204D01*
X338724Y482160D01*
X338684Y482114D01*
X338647Y482065D01*
X338613Y482013D01*
X338583Y481960D01*
X338555Y481905D01*
X338531Y481849D01*
X338511Y481791D01*
X338494Y481731D01*
X338481Y481671D01*
X338472Y481611D01*
X338466Y481549D01*
X338464Y481488D01*
X338466Y481427D01*
X338472Y481365D01*
X338481Y481305D01*
X338494Y481245D01*
X338511Y481185D01*
X338531Y481127D01*
X338555Y481071D01*
X338583Y481016D01*
X338613Y480963D01*
X338647Y480911D01*
X338684Y480862D01*
X338724Y480816D01*
X338767Y480772D01*
X338813Y480730D01*
X338861Y480692D01*
X338911Y480656D01*
X338963Y480624D01*
X339017Y480595D01*
X339073Y480569D01*
X339130Y480547D01*
X339189Y480528D01*
X339248Y480513D01*
X339309Y480502D01*
X339370Y480494D01*
X339431Y480490D01*
X339493Y480490D01*
X339554Y480494D01*
X339615Y480502D01*
X339676Y480513D01*
X339735Y480528D01*
X339794Y480547D01*
X339851Y480569D01*
X339907Y480595D01*
X339961Y480624D01*
X340013Y480656D01*
X340063Y480692D01*
X340111Y480730D01*
X340157Y480772D01*
X340200Y480816D01*
X340240Y480862D01*
X340277Y480911D01*
X340311Y480963D01*
X340341Y481016D01*
X340369Y481071D01*
X340393Y481127D01*
X340413Y481185D01*
X340430Y481245D01*
X340443Y481305D01*
X340452Y481365D01*
X340458Y481427D01*
X340460Y481488D01*
X349677Y511014D02*
X349677Y515506D01*
X348429Y515506D01*
X348360Y515504D01*
X348292Y515498D01*
X348224Y515489D01*
X348156Y515476D01*
X348089Y515459D01*
X348024Y515438D01*
X347959Y515414D01*
X347896Y515387D01*
X347835Y515356D01*
X347775Y515321D01*
X347718Y515284D01*
X347662Y515243D01*
X347609Y515199D01*
X347559Y515153D01*
X347511Y515103D01*
X347466Y515051D01*
X347423Y514997D01*
X347384Y514941D01*
X347348Y514882D01*
X347315Y514822D01*
X347286Y514759D01*
X347260Y514696D01*
X347238Y514631D01*
X347219Y514564D01*
X347204Y514497D01*
X347193Y514429D01*
X347185Y514361D01*
X347181Y514292D01*
X347181Y514224D01*
X347185Y514155D01*
X347193Y514087D01*
X347204Y514019D01*
X347219Y513952D01*
X347238Y513885D01*
X347260Y513820D01*
X347286Y513757D01*
X347315Y513694D01*
X347348Y513634D01*
X347384Y513575D01*
X347423Y513519D01*
X347466Y513465D01*
X347511Y513413D01*
X347559Y513363D01*
X347609Y513317D01*
X347662Y513273D01*
X347718Y513232D01*
X347775Y513195D01*
X347835Y513160D01*
X347896Y513129D01*
X347959Y513102D01*
X348024Y513078D01*
X348089Y513057D01*
X348156Y513040D01*
X348224Y513027D01*
X348292Y513018D01*
X348360Y513012D01*
X348429Y513010D01*
X349677Y513010D01*
X348179Y513010D02*
X347181Y511014D01*
X345210Y512012D02*
X344211Y515506D01*
X345210Y512012D02*
X342714Y512012D01*
X343463Y513010D02*
X343463Y511014D01*
X339711Y513010D02*
X338214Y513010D01*
X339711Y513011D02*
X339771Y513013D01*
X339831Y513018D01*
X339891Y513027D01*
X339950Y513040D01*
X340008Y513056D01*
X340065Y513076D01*
X340121Y513099D01*
X340175Y513125D01*
X340227Y513155D01*
X340278Y513188D01*
X340326Y513223D01*
X340373Y513262D01*
X340417Y513303D01*
X340458Y513347D01*
X340497Y513394D01*
X340532Y513442D01*
X340565Y513493D01*
X340595Y513545D01*
X340621Y513599D01*
X340644Y513655D01*
X340664Y513712D01*
X340680Y513770D01*
X340693Y513829D01*
X340702Y513889D01*
X340707Y513949D01*
X340709Y514009D01*
X340710Y514009D02*
X340710Y514258D01*
X340708Y514327D01*
X340702Y514395D01*
X340693Y514463D01*
X340680Y514531D01*
X340663Y514598D01*
X340642Y514663D01*
X340618Y514728D01*
X340591Y514791D01*
X340560Y514852D01*
X340525Y514912D01*
X340488Y514969D01*
X340447Y515025D01*
X340403Y515078D01*
X340357Y515128D01*
X340307Y515176D01*
X340255Y515221D01*
X340201Y515264D01*
X340145Y515303D01*
X340086Y515339D01*
X340026Y515372D01*
X339963Y515401D01*
X339900Y515427D01*
X339835Y515449D01*
X339768Y515468D01*
X339701Y515483D01*
X339633Y515494D01*
X339565Y515502D01*
X339496Y515506D01*
X339428Y515506D01*
X339359Y515502D01*
X339291Y515494D01*
X339223Y515483D01*
X339156Y515468D01*
X339089Y515449D01*
X339024Y515427D01*
X338961Y515401D01*
X338898Y515372D01*
X338838Y515339D01*
X338779Y515303D01*
X338723Y515264D01*
X338669Y515221D01*
X338617Y515176D01*
X338567Y515128D01*
X338521Y515078D01*
X338477Y515025D01*
X338436Y514969D01*
X338399Y514912D01*
X338364Y514852D01*
X338333Y514791D01*
X338306Y514728D01*
X338282Y514663D01*
X338261Y514598D01*
X338244Y514531D01*
X338231Y514463D01*
X338222Y514395D01*
X338216Y514327D01*
X338214Y514258D01*
X338214Y513010D01*
X338216Y512923D01*
X338222Y512836D01*
X338231Y512749D01*
X338244Y512663D01*
X338261Y512578D01*
X338282Y512493D01*
X338306Y512410D01*
X338334Y512327D01*
X338366Y512246D01*
X338401Y512166D01*
X338440Y512088D01*
X338481Y512012D01*
X338527Y511938D01*
X338575Y511865D01*
X338626Y511795D01*
X338681Y511727D01*
X338738Y511662D01*
X338799Y511599D01*
X338862Y511538D01*
X338927Y511481D01*
X338995Y511426D01*
X339065Y511375D01*
X339138Y511327D01*
X339212Y511281D01*
X339288Y511240D01*
X339366Y511201D01*
X339446Y511166D01*
X339527Y511134D01*
X339610Y511106D01*
X339693Y511082D01*
X339778Y511061D01*
X339863Y511044D01*
X339949Y511031D01*
X340036Y511022D01*
X340123Y511016D01*
X340210Y511014D01*
X349677Y544034D02*
X349677Y548526D01*
X348429Y548526D01*
X348360Y548524D01*
X348292Y548518D01*
X348224Y548509D01*
X348156Y548496D01*
X348089Y548479D01*
X348024Y548458D01*
X347959Y548434D01*
X347896Y548407D01*
X347835Y548376D01*
X347775Y548341D01*
X347718Y548304D01*
X347662Y548263D01*
X347609Y548219D01*
X347559Y548173D01*
X347511Y548123D01*
X347466Y548071D01*
X347423Y548017D01*
X347384Y547961D01*
X347348Y547902D01*
X347315Y547842D01*
X347286Y547779D01*
X347260Y547716D01*
X347238Y547651D01*
X347219Y547584D01*
X347204Y547517D01*
X347193Y547449D01*
X347185Y547381D01*
X347181Y547312D01*
X347181Y547244D01*
X347185Y547175D01*
X347193Y547107D01*
X347204Y547039D01*
X347219Y546972D01*
X347238Y546905D01*
X347260Y546840D01*
X347286Y546777D01*
X347315Y546714D01*
X347348Y546654D01*
X347384Y546595D01*
X347423Y546539D01*
X347466Y546485D01*
X347511Y546433D01*
X347559Y546383D01*
X347609Y546337D01*
X347662Y546293D01*
X347718Y546252D01*
X347775Y546215D01*
X347835Y546180D01*
X347896Y546149D01*
X347959Y546122D01*
X348024Y546098D01*
X348089Y546077D01*
X348156Y546060D01*
X348224Y546047D01*
X348292Y546038D01*
X348360Y546032D01*
X348429Y546030D01*
X349677Y546030D01*
X348179Y546030D02*
X347181Y544034D01*
X345210Y544034D02*
X343712Y544034D01*
X343652Y544036D01*
X343592Y544041D01*
X343532Y544050D01*
X343473Y544063D01*
X343415Y544079D01*
X343358Y544099D01*
X343302Y544122D01*
X343248Y544148D01*
X343196Y544178D01*
X343145Y544211D01*
X343097Y544246D01*
X343050Y544285D01*
X343006Y544326D01*
X342965Y544370D01*
X342926Y544417D01*
X342891Y544465D01*
X342858Y544516D01*
X342828Y544568D01*
X342802Y544622D01*
X342779Y544678D01*
X342759Y544735D01*
X342743Y544793D01*
X342730Y544852D01*
X342721Y544912D01*
X342716Y544972D01*
X342714Y545032D01*
X342714Y545531D01*
X342716Y545591D01*
X342721Y545651D01*
X342730Y545711D01*
X342743Y545770D01*
X342759Y545828D01*
X342779Y545885D01*
X342802Y545941D01*
X342828Y545995D01*
X342858Y546047D01*
X342891Y546098D01*
X342926Y546146D01*
X342965Y546193D01*
X343006Y546237D01*
X343050Y546278D01*
X343097Y546317D01*
X343145Y546352D01*
X343196Y546385D01*
X343248Y546415D01*
X343302Y546441D01*
X343358Y546464D01*
X343415Y546484D01*
X343473Y546500D01*
X343532Y546513D01*
X343592Y546522D01*
X343652Y546527D01*
X343712Y546529D01*
X343712Y546530D02*
X345210Y546530D01*
X345210Y548526D01*
X342714Y548526D01*
X340336Y547902D02*
X340386Y547794D01*
X340434Y547683D01*
X340477Y547572D01*
X340517Y547459D01*
X340554Y547344D01*
X340586Y547229D01*
X340615Y547112D01*
X340640Y546995D01*
X340662Y546877D01*
X340679Y546758D01*
X340693Y546639D01*
X340702Y546520D01*
X340708Y546400D01*
X340710Y546280D01*
X340335Y547902D02*
X340314Y547959D01*
X340289Y548013D01*
X340260Y548067D01*
X340228Y548118D01*
X340193Y548167D01*
X340155Y548213D01*
X340113Y548257D01*
X340069Y548298D01*
X340023Y548336D01*
X339974Y548371D01*
X339922Y548403D01*
X339869Y548431D01*
X339814Y548456D01*
X339758Y548477D01*
X339700Y548495D01*
X339642Y548508D01*
X339582Y548518D01*
X339522Y548524D01*
X339462Y548526D01*
X339402Y548524D01*
X339342Y548518D01*
X339282Y548508D01*
X339224Y548495D01*
X339166Y548477D01*
X339110Y548456D01*
X339055Y548431D01*
X339002Y548403D01*
X338950Y548371D01*
X338901Y548336D01*
X338855Y548298D01*
X338811Y548257D01*
X338769Y548213D01*
X338731Y548167D01*
X338696Y548118D01*
X338664Y548067D01*
X338635Y548014D01*
X338610Y547959D01*
X338589Y547902D01*
X338588Y547902D02*
X338538Y547794D01*
X338490Y547683D01*
X338447Y547572D01*
X338407Y547459D01*
X338370Y547344D01*
X338338Y547229D01*
X338309Y547112D01*
X338284Y546995D01*
X338262Y546877D01*
X338245Y546758D01*
X338231Y546639D01*
X338222Y546520D01*
X338216Y546400D01*
X338214Y546280D01*
X340710Y546280D02*
X340708Y546160D01*
X340702Y546040D01*
X340693Y545921D01*
X340679Y545802D01*
X340662Y545683D01*
X340640Y545565D01*
X340615Y545448D01*
X340586Y545331D01*
X340554Y545216D01*
X340517Y545102D01*
X340477Y544988D01*
X340434Y544877D01*
X340386Y544767D01*
X340336Y544658D01*
X340335Y544658D02*
X340314Y544601D01*
X340289Y544547D01*
X340260Y544493D01*
X340228Y544442D01*
X340193Y544393D01*
X340155Y544347D01*
X340113Y544303D01*
X340069Y544262D01*
X340023Y544224D01*
X339974Y544189D01*
X339922Y544157D01*
X339869Y544129D01*
X339814Y544104D01*
X339758Y544083D01*
X339700Y544065D01*
X339642Y544052D01*
X339582Y544042D01*
X339522Y544036D01*
X339462Y544034D01*
X338588Y544658D02*
X338538Y544767D01*
X338490Y544877D01*
X338447Y544988D01*
X338407Y545102D01*
X338370Y545216D01*
X338338Y545331D01*
X338309Y545448D01*
X338284Y545565D01*
X338262Y545683D01*
X338245Y545802D01*
X338231Y545921D01*
X338222Y546040D01*
X338216Y546160D01*
X338214Y546280D01*
X338589Y544658D02*
X338610Y544601D01*
X338635Y544546D01*
X338664Y544493D01*
X338696Y544442D01*
X338731Y544393D01*
X338769Y544347D01*
X338811Y544303D01*
X338855Y544262D01*
X338901Y544224D01*
X338950Y544189D01*
X339002Y544157D01*
X339055Y544129D01*
X339110Y544104D01*
X339166Y544083D01*
X339224Y544065D01*
X339282Y544052D01*
X339342Y544042D01*
X339402Y544036D01*
X339462Y544034D01*
X340460Y545032D02*
X338464Y547528D01*
X349677Y577054D02*
X349677Y581546D01*
X348429Y581546D01*
X348360Y581544D01*
X348292Y581538D01*
X348224Y581529D01*
X348156Y581516D01*
X348089Y581499D01*
X348024Y581478D01*
X347959Y581454D01*
X347896Y581427D01*
X347835Y581396D01*
X347775Y581361D01*
X347718Y581324D01*
X347662Y581283D01*
X347609Y581239D01*
X347559Y581193D01*
X347511Y581143D01*
X347466Y581091D01*
X347423Y581037D01*
X347384Y580981D01*
X347348Y580922D01*
X347315Y580862D01*
X347286Y580799D01*
X347260Y580736D01*
X347238Y580671D01*
X347219Y580604D01*
X347204Y580537D01*
X347193Y580469D01*
X347185Y580401D01*
X347181Y580332D01*
X347181Y580264D01*
X347185Y580195D01*
X347193Y580127D01*
X347204Y580059D01*
X347219Y579992D01*
X347238Y579925D01*
X347260Y579860D01*
X347286Y579797D01*
X347315Y579734D01*
X347348Y579674D01*
X347384Y579615D01*
X347423Y579559D01*
X347466Y579505D01*
X347511Y579453D01*
X347559Y579403D01*
X347609Y579357D01*
X347662Y579313D01*
X347718Y579272D01*
X347775Y579235D01*
X347835Y579200D01*
X347896Y579169D01*
X347959Y579142D01*
X348024Y579118D01*
X348089Y579097D01*
X348156Y579080D01*
X348224Y579067D01*
X348292Y579058D01*
X348360Y579052D01*
X348429Y579050D01*
X349677Y579050D01*
X348179Y579050D02*
X347181Y577054D01*
X345210Y577054D02*
X343712Y577054D01*
X343652Y577056D01*
X343592Y577061D01*
X343532Y577070D01*
X343473Y577083D01*
X343415Y577099D01*
X343358Y577119D01*
X343302Y577142D01*
X343248Y577168D01*
X343196Y577198D01*
X343145Y577231D01*
X343097Y577266D01*
X343050Y577305D01*
X343006Y577346D01*
X342965Y577390D01*
X342926Y577437D01*
X342891Y577485D01*
X342858Y577536D01*
X342828Y577588D01*
X342802Y577642D01*
X342779Y577698D01*
X342759Y577755D01*
X342743Y577813D01*
X342730Y577872D01*
X342721Y577932D01*
X342716Y577992D01*
X342714Y578052D01*
X342714Y578551D01*
X342716Y578611D01*
X342721Y578671D01*
X342730Y578731D01*
X342743Y578790D01*
X342759Y578848D01*
X342779Y578905D01*
X342802Y578961D01*
X342828Y579015D01*
X342858Y579067D01*
X342891Y579118D01*
X342926Y579166D01*
X342965Y579213D01*
X343006Y579257D01*
X343050Y579298D01*
X343097Y579337D01*
X343145Y579372D01*
X343196Y579405D01*
X343248Y579435D01*
X343302Y579461D01*
X343358Y579484D01*
X343415Y579504D01*
X343473Y579520D01*
X343532Y579533D01*
X343592Y579542D01*
X343652Y579547D01*
X343712Y579549D01*
X343712Y579550D02*
X345210Y579550D01*
X345210Y581546D01*
X342714Y581546D01*
X340710Y580548D02*
X339462Y581546D01*
X339462Y577054D01*
X340710Y577054D02*
X338214Y577054D01*
X349677Y617074D02*
X349677Y621566D01*
X348429Y621566D01*
X348360Y621564D01*
X348292Y621558D01*
X348224Y621549D01*
X348156Y621536D01*
X348089Y621519D01*
X348024Y621498D01*
X347959Y621474D01*
X347896Y621447D01*
X347835Y621416D01*
X347775Y621381D01*
X347718Y621344D01*
X347662Y621303D01*
X347609Y621259D01*
X347559Y621213D01*
X347511Y621163D01*
X347466Y621111D01*
X347423Y621057D01*
X347384Y621001D01*
X347348Y620942D01*
X347315Y620882D01*
X347286Y620819D01*
X347260Y620756D01*
X347238Y620691D01*
X347219Y620624D01*
X347204Y620557D01*
X347193Y620489D01*
X347185Y620421D01*
X347181Y620352D01*
X347181Y620284D01*
X347185Y620215D01*
X347193Y620147D01*
X347204Y620079D01*
X347219Y620012D01*
X347238Y619945D01*
X347260Y619880D01*
X347286Y619817D01*
X347315Y619754D01*
X347348Y619694D01*
X347384Y619635D01*
X347423Y619579D01*
X347466Y619525D01*
X347511Y619473D01*
X347559Y619423D01*
X347609Y619377D01*
X347662Y619333D01*
X347718Y619292D01*
X347775Y619255D01*
X347835Y619220D01*
X347896Y619189D01*
X347959Y619162D01*
X348024Y619138D01*
X348089Y619117D01*
X348156Y619100D01*
X348224Y619087D01*
X348292Y619078D01*
X348360Y619072D01*
X348429Y619070D01*
X349677Y619070D01*
X348179Y619070D02*
X347181Y617074D01*
X345210Y617074D02*
X343712Y617074D01*
X343652Y617076D01*
X343592Y617081D01*
X343532Y617090D01*
X343473Y617103D01*
X343415Y617119D01*
X343358Y617139D01*
X343302Y617162D01*
X343248Y617188D01*
X343196Y617218D01*
X343145Y617251D01*
X343097Y617286D01*
X343050Y617325D01*
X343006Y617366D01*
X342965Y617410D01*
X342926Y617457D01*
X342891Y617505D01*
X342858Y617556D01*
X342828Y617608D01*
X342802Y617662D01*
X342779Y617718D01*
X342759Y617775D01*
X342743Y617833D01*
X342730Y617892D01*
X342721Y617952D01*
X342716Y618012D01*
X342714Y618072D01*
X342714Y618571D01*
X342716Y618631D01*
X342721Y618691D01*
X342730Y618751D01*
X342743Y618810D01*
X342759Y618868D01*
X342779Y618925D01*
X342802Y618981D01*
X342828Y619035D01*
X342858Y619087D01*
X342891Y619138D01*
X342926Y619186D01*
X342965Y619233D01*
X343006Y619277D01*
X343050Y619318D01*
X343097Y619357D01*
X343145Y619392D01*
X343196Y619425D01*
X343248Y619455D01*
X343302Y619481D01*
X343358Y619504D01*
X343415Y619524D01*
X343473Y619540D01*
X343532Y619553D01*
X343592Y619562D01*
X343652Y619567D01*
X343712Y619569D01*
X343712Y619570D02*
X345210Y619570D01*
X345210Y621566D01*
X342714Y621566D01*
X339337Y621566D02*
X339272Y621564D01*
X339207Y621558D01*
X339142Y621549D01*
X339078Y621536D01*
X339015Y621519D01*
X338953Y621498D01*
X338892Y621474D01*
X338833Y621447D01*
X338776Y621416D01*
X338720Y621381D01*
X338666Y621344D01*
X338615Y621303D01*
X338566Y621260D01*
X338520Y621214D01*
X338477Y621165D01*
X338436Y621114D01*
X338399Y621060D01*
X338364Y621005D01*
X338333Y620947D01*
X338306Y620888D01*
X338282Y620827D01*
X338261Y620765D01*
X338244Y620702D01*
X338231Y620638D01*
X338222Y620573D01*
X338216Y620508D01*
X338214Y620443D01*
X339337Y621566D02*
X339410Y621564D01*
X339482Y621559D01*
X339554Y621550D01*
X339625Y621537D01*
X339696Y621521D01*
X339766Y621501D01*
X339835Y621477D01*
X339902Y621451D01*
X339968Y621421D01*
X340033Y621387D01*
X340095Y621351D01*
X340156Y621311D01*
X340215Y621268D01*
X340271Y621223D01*
X340325Y621174D01*
X340377Y621123D01*
X340426Y621070D01*
X340472Y621014D01*
X340516Y620956D01*
X340556Y620895D01*
X340593Y620833D01*
X340627Y620769D01*
X340658Y620703D01*
X340686Y620636D01*
X340710Y620568D01*
X338588Y619570D02*
X338542Y619616D01*
X338499Y619664D01*
X338458Y619715D01*
X338420Y619768D01*
X338385Y619823D01*
X338354Y619880D01*
X338325Y619938D01*
X338299Y619998D01*
X338277Y620059D01*
X338258Y620121D01*
X338242Y620185D01*
X338230Y620249D01*
X338221Y620313D01*
X338216Y620378D01*
X338214Y620443D01*
X338588Y619570D02*
X340710Y617074D01*
X338214Y617074D01*
M02*
