G04 EAGLE Gerber RS-274X export*
G75*
%MOMM*%
%FSLAX34Y34*%
%LPD*%
%INSoldermask Top*%
%IPPOS*%
%AMOC8*
5,1,8,0,0,1.08239X$1,22.5*%
G01*
%ADD10C,4.203200*%
%ADD11P,2.309387X8X112.500000*%
%ADD12R,2.082800X2.082800*%
%ADD13C,2.082800*%
%ADD14R,1.253200X0.853200*%
%ADD15R,1.013200X1.133200*%
%ADD16R,1.133200X1.013200*%
%ADD17R,1.243200X1.223200*%
%ADD18R,2.003200X2.003200*%
%ADD19C,2.003200*%
%ADD20R,0.803200X1.003200*%
%ADD21R,0.508000X1.193800*%
%ADD22R,1.503200X1.703200*%
%ADD23C,0.959600*%


D10*
X400000Y746000D03*
X60000Y990000D03*
X60000Y40000D03*
D11*
X149600Y250800D03*
X175000Y250800D03*
X200400Y250800D03*
X225800Y250800D03*
X251200Y250800D03*
X276600Y250800D03*
X302000Y250800D03*
X327400Y250800D03*
X352800Y250800D03*
X352800Y327000D03*
X327400Y327000D03*
X302000Y327000D03*
X276600Y327000D03*
X251200Y327000D03*
X225800Y327000D03*
X200400Y327000D03*
X175000Y327000D03*
X149600Y327000D03*
D12*
X474300Y234300D03*
D13*
X474300Y259700D03*
X474300Y285100D03*
X474300Y310500D03*
D12*
X59300Y394500D03*
D13*
X59300Y369100D03*
X59300Y343700D03*
X59300Y318300D03*
D12*
X59300Y496100D03*
D13*
X59300Y470700D03*
X59300Y445300D03*
X59300Y419900D03*
D12*
X59200Y612400D03*
D13*
X59200Y587000D03*
X59200Y561600D03*
X59200Y536200D03*
D12*
X59200Y828300D03*
D13*
X59200Y802900D03*
X59200Y777500D03*
X59200Y752100D03*
D12*
X194200Y980800D03*
D13*
X168800Y980800D03*
X143400Y980800D03*
X118000Y980800D03*
D12*
X410100Y980800D03*
D13*
X384700Y980800D03*
X359300Y980800D03*
X333900Y980800D03*
D12*
X474300Y338600D03*
D13*
X474300Y364000D03*
D12*
X437800Y49300D03*
D13*
X463200Y49300D03*
X488600Y49300D03*
X514000Y49300D03*
D12*
X336200Y49300D03*
D13*
X361600Y49300D03*
X387000Y49300D03*
X412400Y49300D03*
D12*
X223700Y49300D03*
D13*
X249100Y49300D03*
X274500Y49300D03*
X299900Y49300D03*
D12*
X122100Y49300D03*
D13*
X147500Y49300D03*
X172900Y49300D03*
X198300Y49300D03*
D12*
X59300Y170400D03*
D13*
X59300Y145000D03*
X59300Y119600D03*
X59300Y94200D03*
D12*
X59300Y272000D03*
D13*
X59300Y246600D03*
X59300Y221200D03*
X59300Y195800D03*
D11*
X149600Y695100D03*
X175000Y695100D03*
X200400Y695100D03*
X225800Y695100D03*
X251200Y695100D03*
X276600Y695100D03*
X302000Y695100D03*
X327400Y695100D03*
X352800Y695100D03*
X352800Y771300D03*
X327400Y771300D03*
X302000Y771300D03*
X276600Y771300D03*
X251200Y771300D03*
X225800Y771300D03*
X200400Y771300D03*
X175000Y771300D03*
X149600Y771300D03*
D12*
X59200Y714000D03*
D13*
X59200Y688600D03*
X59200Y663200D03*
X59200Y637800D03*
D12*
X59200Y929900D03*
D13*
X59200Y904500D03*
X59200Y879100D03*
X59200Y853700D03*
D12*
X295800Y980800D03*
D13*
X270400Y980800D03*
X245000Y980800D03*
X219600Y980800D03*
D12*
X511700Y980800D03*
D13*
X486300Y980800D03*
X460900Y980800D03*
X435500Y980800D03*
D14*
X419510Y147050D03*
X419510Y125550D03*
X461010Y147050D03*
X461010Y125550D03*
X153810Y856830D03*
X153810Y835330D03*
X195310Y856830D03*
X195310Y835330D03*
D15*
X341500Y98480D03*
X357700Y98480D03*
X391300Y98440D03*
X407500Y98440D03*
X127400Y97860D03*
X143600Y97860D03*
X178200Y97820D03*
X194400Y97820D03*
D16*
X112240Y267240D03*
X112240Y251040D03*
X112200Y215440D03*
X112200Y199240D03*
X111620Y491940D03*
X111620Y475740D03*
X112580Y441140D03*
X112580Y424940D03*
X111560Y710460D03*
X111560Y694260D03*
X111140Y658260D03*
X111140Y642060D03*
X111980Y924760D03*
X111980Y908560D03*
X111220Y875160D03*
X111220Y858960D03*
D15*
X291200Y931200D03*
X275000Y931200D03*
X240200Y930360D03*
X224000Y930360D03*
X507900Y931380D03*
X491700Y931380D03*
X454100Y931420D03*
X437900Y931420D03*
X404780Y235060D03*
X420980Y235060D03*
X404780Y251260D03*
X420980Y251260D03*
D17*
X405690Y310480D03*
X420390Y310480D03*
X405690Y331440D03*
X420390Y331440D03*
D18*
X476000Y406100D03*
D19*
X476000Y431500D03*
X476000Y456900D03*
X476000Y482300D03*
X476000Y507700D03*
X476000Y533100D03*
X476000Y558500D03*
X476000Y583900D03*
D18*
X476000Y621180D03*
D19*
X476000Y646580D03*
X476000Y671980D03*
X476000Y697380D03*
X476000Y722780D03*
X476000Y748180D03*
X476000Y773580D03*
X476000Y798980D03*
D20*
X376760Y393760D03*
X392760Y393760D03*
X376760Y426780D03*
X392760Y426780D03*
X376760Y459800D03*
X392760Y459800D03*
X376760Y492820D03*
X392760Y492820D03*
X376760Y525840D03*
X392760Y525840D03*
X376760Y558860D03*
X392760Y558860D03*
X376760Y591880D03*
X392760Y591880D03*
X376760Y621900D03*
X392760Y621900D03*
D14*
X419810Y191530D03*
X419810Y170030D03*
X461310Y191530D03*
X461310Y170030D03*
X330310Y146770D03*
X330310Y125270D03*
X371810Y146770D03*
X371810Y125270D03*
X330310Y192430D03*
X330310Y170930D03*
X371810Y192430D03*
X371810Y170930D03*
X242770Y147410D03*
X242770Y125910D03*
X284270Y147410D03*
X284270Y125910D03*
X242770Y192610D03*
X242770Y171110D03*
X284270Y192610D03*
X284270Y171110D03*
X152770Y146970D03*
X152770Y125470D03*
X194270Y146970D03*
X194270Y125470D03*
X152770Y192170D03*
X152770Y170670D03*
X194270Y192170D03*
X194270Y170670D03*
D20*
X345060Y393760D03*
X361060Y393760D03*
X345060Y426780D03*
X361060Y426780D03*
X345060Y459800D03*
X361060Y459800D03*
X345060Y492820D03*
X361060Y492820D03*
X345060Y525840D03*
X361060Y525840D03*
X345060Y558860D03*
X361060Y558860D03*
X345060Y591880D03*
X361060Y591880D03*
X345060Y621900D03*
X361060Y621900D03*
D14*
X153370Y902170D03*
X153370Y880670D03*
X194870Y902170D03*
X194870Y880670D03*
X243370Y856470D03*
X243370Y834970D03*
X284870Y856470D03*
X284870Y834970D03*
X243370Y901270D03*
X243370Y879770D03*
X284870Y901270D03*
X284870Y879770D03*
X330910Y858030D03*
X330910Y836530D03*
X372410Y858030D03*
X372410Y836530D03*
X330910Y902830D03*
X330910Y881330D03*
X372410Y902830D03*
X372410Y881330D03*
X420910Y856130D03*
X420910Y834630D03*
X462410Y856130D03*
X462410Y834630D03*
X420910Y901010D03*
X420910Y879510D03*
X462410Y901010D03*
X462410Y879510D03*
D21*
X205090Y508922D03*
X211590Y508922D03*
X218090Y508922D03*
X224590Y508922D03*
X231090Y508922D03*
X237590Y508922D03*
X244090Y508922D03*
X250590Y508922D03*
X257090Y508922D03*
X263590Y508922D03*
X263590Y567278D03*
X257090Y567278D03*
X250590Y567278D03*
X244090Y567278D03*
X237590Y567278D03*
X231090Y567278D03*
X224590Y567278D03*
X218090Y567278D03*
X211590Y567278D03*
X205090Y567278D03*
X270090Y508922D03*
X270090Y567278D03*
X276590Y508922D03*
X276590Y567278D03*
D22*
X166220Y569340D03*
X185220Y569340D03*
X185220Y549020D03*
X166220Y549020D03*
X166220Y528700D03*
X185220Y528700D03*
X295760Y556640D03*
X314760Y556640D03*
X314760Y536320D03*
X295760Y536320D03*
X314760Y516000D03*
X295760Y516000D03*
X185500Y508000D03*
X166500Y508000D03*
D23*
X363000Y572000D03*
X239000Y26000D03*
X424000Y28000D03*
X355000Y296000D03*
X353000Y646000D03*
X126000Y589000D03*
X93000Y89000D03*
X83000Y158000D03*
X145000Y941000D03*
X175000Y957000D03*
X38000Y584000D03*
X76736Y574000D03*
X35000Y410000D03*
X394000Y137000D03*
X381000Y215000D03*
X83820Y691896D03*
X147500Y568750D03*
X30000Y548750D03*
X498750Y675000D03*
X205000Y546250D03*
X295000Y456250D03*
X306250Y445000D03*
X263750Y360000D03*
X377500Y288750D03*
X408750Y298750D03*
X393192Y246888D03*
X396240Y300228D03*
X341376Y109728D03*
X343008Y943356D03*
X249936Y940308D03*
X519068Y931964D03*
X465284Y931964D03*
X99060Y874668D03*
X303384Y931164D03*
X112052Y935844D03*
X99060Y658260D03*
X99060Y710368D03*
X112776Y452628D03*
X99060Y490728D03*
X112776Y227076D03*
X123444Y266700D03*
X178308Y85344D03*
X128016Y85344D03*
X391668Y86868D03*
X198120Y558800D03*
X166116Y152400D03*
X217932Y123444D03*
X245364Y669036D03*
X440000Y180000D03*
X381000Y377000D03*
X385000Y342516D03*
X192024Y292608D03*
X379000Y412000D03*
X297180Y178736D03*
X368332Y335280D03*
X377000Y446000D03*
X342900Y147828D03*
X379000Y479000D03*
X297180Y274320D03*
X498348Y292608D03*
X378000Y512000D03*
X378000Y545000D03*
X333756Y419100D03*
X289560Y374904D03*
X377000Y605000D03*
X208788Y219456D03*
X438912Y684276D03*
X362712Y237744D03*
X379000Y636000D03*
X208788Y193548D03*
X452628Y710184D03*
X429768Y452628D03*
X413004Y452628D03*
X413004Y470916D03*
X346000Y380000D03*
X198120Y729996D03*
X397764Y512064D03*
X346000Y412000D03*
X141732Y812292D03*
X128016Y665988D03*
X346000Y446000D03*
X243840Y845820D03*
X175260Y731520D03*
X346000Y479000D03*
X263652Y880872D03*
X263652Y737616D03*
X396240Y545592D03*
X346000Y511000D03*
X345000Y544000D03*
X371856Y891540D03*
X313944Y737616D03*
X346000Y577092D03*
X345000Y610000D03*
X193040Y436880D03*
X156972Y451104D03*
X203200Y439420D03*
X227259Y435681D03*
X175260Y443484D03*
X237363Y435767D03*
X166116Y185928D03*
X141732Y284988D03*
X259069Y431931D03*
X169164Y429768D03*
X267145Y438145D03*
X123444Y313944D03*
X288539Y433461D03*
X160020Y435864D03*
X298145Y438145D03*
X132588Y358140D03*
X288000Y580000D03*
X175260Y641604D03*
X286914Y591000D03*
X182880Y633984D03*
X269822Y589822D03*
X260604Y643128D03*
X260354Y585000D03*
X246000Y589000D03*
X205740Y722376D03*
X213360Y842772D03*
X235509Y588509D03*
X130540Y617220D03*
X76200Y617220D03*
X201000Y590368D03*
X183600Y590484D03*
X117540Y601552D03*
X276000Y521600D03*
X326672Y527029D03*
X314960Y502920D03*
X268967Y528856D03*
X262400Y554400D03*
X279200Y544800D03*
M02*
