M48
;GenerationSoftware,Autodesk,EAGLE,9.6.2*%
;CreationDate,2025-04-30T17:57:39Z*%
FMAT,2
ICI,OFF
METRIC,TZ,000.000
T5C0.350
T4C1.016
T3C1.100
T2C1.200
T1C4.000
%
G90
M71
T1
X40000Y74600
X6000Y99000
X6000Y4000
T2
X47600Y62118
X47600Y79898
X47600Y40610
X47600Y43150
X47600Y45690
X47600Y48230
X47600Y50770
X47600Y53310
X47600Y55850
X47600Y58390
X47600Y64658
X47600Y67198
X47600Y69738
X47600Y72278
X47600Y74818
X47600Y77358
T3
X22580Y32700
X20040Y32700
X17500Y32700
X14960Y32700
X17500Y69510
X14960Y69510
X20040Y69510
X22580Y69510
X17500Y25080
X27660Y69510
X30200Y69510
X32740Y69510
X35280Y69510
X35280Y77130
X32740Y77130
X30200Y77130
X27660Y77130
X25120Y77130
X22580Y77130
X20040Y77130
X17500Y77130
X14960Y77130
X14960Y25080
X20040Y25080
X22580Y25080
X25120Y25080
X27660Y25080
X30200Y25080
X32740Y25080
X25120Y69510
X35280Y25080
X35280Y32700
X32740Y32700
X30200Y32700
X27660Y32700
X25120Y32700
T4
X48860Y4930
X51400Y4930
X33620Y4930
X36160Y4930
X38700Y4930
X41240Y4930
X22370Y4930
X38470Y98080
X29990Y4930
X12210Y4930
X14750Y4930
X17290Y4930
X19830Y4930
X5930Y17040
X5930Y14500
X5930Y11960
X5930Y9420
X5930Y27200
X5930Y24660
X5930Y22120
X5930Y19580
X5930Y49610
X27450Y4930
X47430Y23430
X47430Y25970
X47430Y28510
X47430Y31050
X5930Y39450
X5930Y36910
X5930Y34370
X5930Y31830
X5930Y47070
X5930Y44530
X5930Y41990
X5920Y61240
X5920Y58700
X5920Y56160
X5920Y53620
X5920Y71400
X5920Y82830
X5920Y66320
X5920Y63780
X5920Y92990
X5920Y90450
X5920Y87910
X5920Y85370
X29580Y98080
X27040Y98080
X24500Y98080
X21960Y98080
X51170Y98080
X48630Y98080
X46090Y98080
X43550Y98080
X5920Y68860
X5920Y80290
X5920Y77750
X5920Y75210
X19420Y98080
X16880Y98080
X14340Y98080
X11800Y98080
X41010Y98080
X35930Y98080
X33390Y98080
X47430Y33860
X47430Y36400
X43780Y4930
X46320Y4930
X24910Y4930
T5
X27600Y52160
X32667Y52703
X31496Y50292
X9906Y87467
X26240Y55440
X27920Y54480
X36300Y57200
X23900Y2600
X42400Y2800
X35500Y29600
X35300Y64600
X12600Y58900
X9300Y8900
X8300Y15800
X14500Y94100
X17500Y95700
X3800Y58400
X7674Y57400
X3500Y41000
X39400Y13700
X38100Y21500
X8382Y69190
X14750Y56875
X3000Y54875
X49875Y67500
X20500Y54625
X29500Y45625
X30625Y44500
X26375Y36000
X37750Y28875
X40875Y29875
X39319Y24689
X39624Y30023
X34138Y10973
X34301Y94336
X26897Y52886
X24994Y94031
X51907Y93196
X46528Y93196
X30338Y93116
X11205Y93584
X9906Y65826
X9906Y71037
X11278Y45263
X9906Y49073
X11278Y22708
X12344Y26670
X17831Y8534
X12802Y8534
X39167Y8687
X19812Y55880
X16612Y15240
X21793Y12344
X24536Y66904
X44000Y18000
X38100Y37700
X38500Y34252
X19202Y29261
X37900Y41200
X29718Y17874
X36833Y33528
X37700Y44600
X34290Y14783
X37900Y47900
X29718Y27432
X49835Y29261
X37800Y51200
X37800Y54500
X33376Y41910
X28956Y37490
X37700Y60500
X20879Y21946
X43891Y68428
X36271Y23774
X37900Y63600
X20879Y19355
X45263Y71018
X42977Y45263
X41300Y45263
X41300Y47092
X34600Y38000
X19812Y73000
X39776Y51206
X34600Y41200
X14173Y81229
X12802Y66599
X34600Y44600
X24384Y84582
X17526Y73152
X34600Y47900
X26365Y88087
X26365Y73762
X39624Y54559
X34600Y51100
X34500Y54400
X37186Y89154
X31394Y73762
X34600Y57709
X22726Y43568
X34500Y61000
X19304Y43688
X15697Y45110
X20320Y43942
X17526Y44348
X23736Y43577
X16612Y18593
X14173Y28499
X25907Y43193
X16916Y42977
X26714Y43814
X12344Y31394
X28854Y43346
X16002Y43586
X29814Y43814
X13259Y35814
X28800Y58000
X17526Y64160
X28691Y59100
X18288Y63398
X26982Y58982
X26060Y64313
X26035Y58500
X24600Y58900
X20574Y72238
X21336Y84277
X23551Y58851
X13054Y61722
X7620Y61722
X20100Y59037
X18360Y59048
X11754Y60155
M30